<svg id="white_logo_symbol" data-name="white/logo_symbol" xmlns="http://www.w3.org/2000/svg" width="23.952" height="26.197" viewBox="0 0 23.952 26.197">
  <path id="Shape" d="M125.663,114.876v-2a1.921,1.921,0,0,1,.077-.674,1.383,1.383,0,0,1,2.59,0,1.916,1.916,0,0,1,.077.674v3.09a2.479,2.479,0,0,1-.039.543,1.391,1.391,0,0,1-1.025.992,2.734,2.734,0,0,1-.561.037h-3.19a2.1,2.1,0,0,1-.7-.075,1.312,1.312,0,0,1,0-2.509,2.1,2.1,0,0,1,.7-.075Zm11.367,14.007H119.922v-14.6a.64.64,0,0,1,.2-.478l4.436-4.3a.683.683,0,0,1,.493-.2H137.03Zm1.943-22.864a3.735,3.735,0,0,0-.425-.019H124.6c-.154,0-.309.009-.416.019a2.73,2.73,0,0,0-1.663.786l-5.191,5.028a2.58,2.58,0,0,0-.812,1.61c-.01.1-.019.253-.019.4v16.507a3.352,3.352,0,0,0,.019.412,1.7,1.7,0,0,0,1.459,1.414,3.69,3.69,0,0,0,.425.019h20.143a3.688,3.688,0,0,0,.425-.019,1.7,1.7,0,0,0,1.46-1.414,3.435,3.435,0,0,0,.019-.412V107.844a3.435,3.435,0,0,0-.019-.412A1.7,1.7,0,0,0,138.973,106.019Z" transform="translate(-116.5 -106)" fill="#fff" fill-rule="evenodd"/>
</svg>
