<svg id="コンポーネント_42_21" data-name="コンポーネント 42 – 21" xmlns="http://www.w3.org/2000/svg" width="31.999" height="26.038" viewBox="0 0 31.999 26.038">
  <path id="パス_19318" data-name="パス 19318" d="M52.1,67.085a13.272,13.272,0,0,1-3.77,1.037,6.588,6.588,0,0,0,2.889-3.635,13.045,13.045,0,0,1-4.17,1.593,6.563,6.563,0,0,0-11.358,4.489,6.427,6.427,0,0,0,.17,1.5A18.6,18.6,0,0,1,22.324,65.2a6.578,6.578,0,0,0,2.041,8.774,6.412,6.412,0,0,1-2.984-.82v.081a6.571,6.571,0,0,0,5.269,6.442,6.608,6.608,0,0,1-1.729.231,6.194,6.194,0,0,1-1.234-.122,6.575,6.575,0,0,0,6.137,4.563,13.162,13.162,0,0,1-8.157,2.814,13.309,13.309,0,0,1-1.566-.095,18.35,18.35,0,0,0,10.049,2.97c12.09,0,18.695-10.015,18.695-18.7,0-.285-.007-.57-.02-.848A13.364,13.364,0,0,0,52.1,67.085Z" transform="translate(-20.1 -64)" fill="#fff"/>
</svg>
