<svg id="コンポーネント_31_122" data-name="コンポーネント 31 – 122" xmlns="http://www.w3.org/2000/svg" width="26.197" height="26.197" viewBox="0 0 26.197 26.197">
  <g id="グループ_5326" data-name="グループ 5326">
    <path id="パス_15886" data-name="パス 15886" d="M17.178,6.439c3.5,0,3.912.013,5.293.076a7.25,7.25,0,0,1,2.432.451,4.338,4.338,0,0,1,2.486,2.486,7.25,7.25,0,0,1,.451,2.432c.063,1.381.076,1.8.076,5.293s-.013,3.912-.076,5.293a7.25,7.25,0,0,1-.451,2.432A4.338,4.338,0,0,1,24.9,27.389a7.25,7.25,0,0,1-2.432.451c-1.381.063-1.8.076-5.293.076s-3.912-.013-5.293-.076a7.25,7.25,0,0,1-2.432-.451A4.338,4.338,0,0,1,6.966,24.9a7.25,7.25,0,0,1-.451-2.432c-.063-1.381-.076-1.8-.076-5.293s.013-3.912.076-5.293a7.25,7.25,0,0,1,.451-2.432A4.338,4.338,0,0,1,9.452,6.966a7.25,7.25,0,0,1,2.432-.451c1.381-.063,1.8-.076,5.293-.076m0-2.36c-3.557,0-4,.015-5.4.079a9.615,9.615,0,0,0-3.18.609A6.7,6.7,0,0,0,4.767,8.6a9.615,9.615,0,0,0-.609,3.18c-.064,1.4-.079,1.843-.079,5.4s.015,4,.079,5.4a9.615,9.615,0,0,0,.609,3.18A6.7,6.7,0,0,0,8.6,29.589a9.615,9.615,0,0,0,3.18.609c1.4.064,1.843.079,5.4.079s4-.015,5.4-.079a9.615,9.615,0,0,0,3.18-.609,6.7,6.7,0,0,0,3.831-3.831,9.615,9.615,0,0,0,.609-3.18c.064-1.4.079-1.843.079-5.4s-.015-4-.079-5.4a9.615,9.615,0,0,0-.609-3.18,6.7,6.7,0,0,0-3.831-3.831,9.615,9.615,0,0,0-3.18-.609c-1.4-.064-1.843-.079-5.4-.079Z" transform="translate(-4.079 -4.079)" fill="#fff"/>
    <path id="パス_15887" data-name="パス 15887" d="M133.682,126.635a7.047,7.047,0,1,0,7.047,7.047A7.047,7.047,0,0,0,133.682,126.635Zm0,11.621a4.574,4.574,0,1,1,4.574-4.574A4.574,4.574,0,0,1,133.682,138.256Z" transform="translate(-120.583 -120.583)" fill="#fff"/>
    <circle id="楕円形_391" data-name="楕円形 391" cx="1.954" cy="1.954" r="1.954" transform="translate(17.904 4.384)" fill="#fff"/>
  </g>
</svg>
