<svg xmlns="http://www.w3.org/2000/svg" width="22.805" height="22.805" viewBox="0 0 22.805 22.805">
  <g id="グループ_8372" data-name="グループ 8372" transform="translate(-191.586 -1517.697)">
    <path id="パス_19472" data-name="パス 19472" d="M992.661,22.8H975.286a2.715,2.715,0,0,1-2.715-2.715V2.715A2.715,2.715,0,0,1,975.286,0h17.375a2.715,2.715,0,0,1,2.715,2.715V20.09a2.715,2.715,0,0,1-2.715,2.715" transform="translate(-780.985 1517.697)"/>
    <g id="グループ_8368" data-name="グループ 8368" transform="translate(195.786 1521.844)">
      <path id="パス_19473" data-name="パス 19473" d="M1052.727,155.551h-2.381a.422.422,0,0,0-.422.422v9.369a.422.422,0,0,0,.422.422h2.381a.422.422,0,0,0,.422-.422v-9.369a.422.422,0,0,0-.422-.422" transform="translate(-1049.924 -151.251)" fill="#fff"/>
      <path id="パス_19474" data-name="パス 19474" d="M1051.537,76.351a1.433,1.433,0,0,0-1.613,1.328,1.455,1.455,0,0,0,1.613,1.36,1.431,1.431,0,0,0,1.613-1.36,1.454,1.454,0,0,0-1.613-1.328" transform="translate(-1049.924 -76.351)" fill="#fff"/>
      <path id="パス_19475" data-name="パス 19475" d="M1145.373,155.551a4.183,4.183,0,0,0-2.457.766.422.422,0,0,1-.666-.344.422.422,0,0,0-.422-.422h-2.381a.422.422,0,0,0-.422.422v9.369a.422.422,0,0,0,.422.422h2.381a.422.422,0,0,0,.422-.422v-4.953c0-1.064.537-2.172,1.838-2.172h.043a1.933,1.933,0,0,1,1.881,2.172v4.953a.422.422,0,0,0,.422.422h2.381a.422.422,0,0,0,.422-.422v-5.351c0-2.973-1.731-4.44-3.865-4.44" transform="translate(-1134.186 -151.251)" fill="#fff"/>
    </g>
  </g>
</svg>
