<svg xmlns="http://www.w3.org/2000/svg" width="22.805" height="22.805" viewBox="0 0 22.805 22.805">
  <g id="グループ_8371" data-name="グループ 8371" transform="translate(-152.759 -1517.69)">
    <path id="パス_19477" data-name="パス 19477" d="M515.919,22.8H498.544a2.715,2.715,0,0,1-2.715-2.715V2.715A2.715,2.715,0,0,1,498.544,0h17.375a2.715,2.715,0,0,1,2.715,2.715V20.09a2.715,2.715,0,0,1-2.715,2.715" transform="translate(-343.07 1517.69)"/>
    <path id="パス_19478" data-name="パス 19478" d="M582.157,88.2l4.731-5.539h-1.441l-3.941,4.615-3.248-4.615h-4.574L579,90.206l-5.364,6.279h1.44l4.574-5.355,3.769,5.355h4.573Zm-6.266-4.387h1.766l8.129,11.524h-1.766Z" transform="translate(-416.651 1439.521)" fill="#fff"/>
  </g>
</svg>
