<svg xmlns="http://www.w3.org/2000/svg" width="22.805" height="22.813" viewBox="0 0 22.805 22.813">
  <g id="グループ_8367" data-name="グループ 8367" transform="translate(0)">
    <path id="パス_19470" data-name="パス 19470" d="M20.09,22.8H2.715A2.715,2.715,0,0,1,0,20.09V2.715A2.715,2.715,0,0,1,2.715,0H20.09a2.715,2.715,0,0,1,2.715,2.715V20.09A2.715,2.715,0,0,1,20.09,22.8" transform="translate(0 0)"/>
    <path id="パス_19471" data-name="パス 19471" d="M184.287,85.693l.444-3.11h-3.269V81.255c0-1.192.39-1.781,1.505-1.781h1.792V76.5a15.221,15.221,0,0,0-2.239-.136c-2.628,0-4.168,1.388-4.168,4.55v1.67h-3.11v3.11h3.11V95.03h3.11V85.693Z" transform="translate(-165.727 -72.218)" fill="#fff"/>
  </g>
</svg>
