<svg id="レイヤー_1" data-name="レイヤー 1" xmlns="http://www.w3.org/2000/svg" viewBox="0 0 135 215"><defs><style>.cls-1{opacity:0.75;}.cls-2{fill:none;stroke:#000;stroke-miterlimit:10;stroke-width:0.4px;}</style></defs><g id="グループ_7850" data-name="グループ 7850" class="cls-1"><path id="パス_18843" data-name="パス 18843" class="cls-2" d="M65.11,159.35c-47.8,0-64.84-41-64.84-79.47S17.31.41,65.11.41,130,41.47,130,79.88,112.92,159.35,65.11,159.35Zm0-128.25C44,31.1,31.32,49.33,31.32,79.88S44,128.67,65.11,128.67s33.8-18.24,33.8-48.79S86.27,31.1,65.11,31.1Z"/><path id="パス_18844" data-name="パス 18844" class="cls-2" d="M99.79,213.48V38.33a1.1,1.1,0,0,0-1.1-1.1H85.53a1.1,1.1,0,0,1-1.1-1.1h0V20.73a1.11,1.11,0,0,1,.81-1.05c10.34-3,15.7-7.89,18.68-11.36a32.25,32.25,0,0,0,2.71-4,1,1,0,0,1,.94-.54h26.06a1.1,1.1,0,0,1,1.1,1.1h0V213.48a1.1,1.1,0,0,1-1.1,1.1H100.89a1.1,1.1,0,0,1-1.1-1.1Z"/></g></svg>