<svg width="146" height="59" viewBox="0 0 146 59" fill="none" xmlns="http://www.w3.org/2000/svg">
<path d="M128.726 5.94922C130.292 5.94922 131.539 6.41322 132.467 7.34122C133.414 8.26922 133.888 9.53555 133.888 11.1402V20.6522C133.888 20.7489 133.849 20.8359 133.772 20.9132C133.714 20.9712 133.637 21.0002 133.54 21.0002H130.872C130.775 21.0002 130.688 20.9712 130.611 20.9132C130.553 20.8359 130.524 20.7489 130.524 20.6522V11.8362C130.524 10.9469 130.273 10.2316 129.77 9.69022C129.267 9.12955 128.6 8.84922 127.769 8.84922C126.938 8.84922 126.261 9.11989 125.739 9.66122C125.236 10.2026 124.985 10.9179 124.985 11.8072V20.6522C124.985 20.7489 124.946 20.8359 124.869 20.9132C124.811 20.9712 124.734 21.0002 124.637 21.0002H121.969C121.872 21.0002 121.785 20.9712 121.708 20.9132C121.65 20.8359 121.621 20.7489 121.621 20.6522V6.52922C121.621 6.43255 121.65 6.35522 121.708 6.29722C121.785 6.21989 121.872 6.18122 121.969 6.18122H124.637C124.734 6.18122 124.811 6.21989 124.869 6.29722C124.946 6.35522 124.985 6.43255 124.985 6.52922V7.45722C124.985 7.51522 125.004 7.55389 125.043 7.57322C125.082 7.59255 125.111 7.57322 125.13 7.51522C125.923 6.47122 127.121 5.94922 128.726 5.94922Z" fill="white"/>
<path d="M111.8 21.2322C110.273 21.2322 108.958 20.8456 107.856 20.0722C106.774 19.2989 106.01 18.2259 105.565 16.8532C105.237 15.8092 105.072 14.7072 105.072 13.5472C105.072 12.3099 105.227 11.2079 105.536 10.2412C105.981 8.88789 106.754 7.83422 107.856 7.08022C108.958 6.32622 110.283 5.94922 111.829 5.94922C113.299 5.94922 114.565 6.32622 115.628 7.08022C116.711 7.83422 117.475 8.87822 117.919 10.2122C118.267 11.1402 118.441 12.2422 118.441 13.5182C118.441 14.7362 118.277 15.8382 117.948 16.8242C117.504 18.1969 116.74 19.2796 115.657 20.0722C114.575 20.8456 113.289 21.2322 111.8 21.2322ZM111.8 18.3322C112.516 18.3322 113.125 18.1292 113.627 17.7232C114.149 17.3172 114.526 16.7469 114.758 16.0122C114.952 15.3742 115.048 14.5622 115.048 13.5762C115.048 12.5322 114.952 11.7202 114.758 11.1402C114.546 10.4056 114.178 9.84489 113.656 9.45822C113.134 9.05222 112.496 8.84922 111.742 8.84922C111.027 8.84922 110.408 9.05222 109.886 9.45822C109.364 9.84489 108.987 10.4056 108.755 11.1402C108.562 11.8169 108.465 12.6289 108.465 13.5762C108.465 14.5236 108.562 15.3356 108.755 16.0122C108.968 16.7469 109.335 17.3172 109.857 17.7232C110.399 18.1292 111.046 18.3322 111.8 18.3322Z" fill="white"/>
<path d="M100.03 4.1512C99.4304 4.1512 98.9374 3.95787 98.5507 3.5712C98.164 3.18454 97.9707 2.69154 97.9707 2.0922C97.9707 1.49287 98.164 0.99987 98.5507 0.613204C98.9374 0.226537 99.4304 0.0332031 100.03 0.0332031C100.629 0.0332031 101.122 0.226537 101.509 0.613204C101.895 0.99987 102.089 1.49287 102.089 2.0922C102.089 2.69154 101.895 3.18454 101.509 3.5712C101.122 3.95787 100.629 4.1512 100.03 4.1512ZM98.6377 21.0002C98.541 21.0002 98.454 20.9712 98.3767 20.9132C98.3187 20.8359 98.2897 20.7489 98.2897 20.6522V6.5002C98.2897 6.40354 98.3187 6.3262 98.3767 6.2682C98.454 6.19087 98.541 6.1522 98.6377 6.1522H101.306C101.402 6.1522 101.48 6.19087 101.538 6.2682C101.615 6.3262 101.654 6.40354 101.654 6.5002V20.6522C101.654 20.7489 101.615 20.8359 101.538 20.9132C101.48 20.9712 101.402 21.0002 101.306 21.0002H98.6377Z" fill="white"/>
<path d="M95.1285 8.55892C95.1285 8.65559 95.0898 8.74259 95.0125 8.81992C94.9545 8.87792 94.8772 8.90692 94.7805 8.90692H91.8225C91.7258 8.90692 91.6775 8.95526 91.6775 9.05192V16.0409C91.6775 16.7756 91.8322 17.3073 92.1415 17.6359C92.4702 17.9646 92.9825 18.1289 93.6785 18.1289H94.5485C94.6452 18.1289 94.7225 18.1676 94.7805 18.2449C94.8578 18.3029 94.8965 18.3803 94.8965 18.4769V20.6519C94.8965 20.8646 94.7805 20.9903 94.5485 21.0289L93.0405 21.0579C91.5132 21.0579 90.3725 20.7969 89.6185 20.2749C88.8645 19.7529 88.4778 18.7669 88.4585 17.3169V9.05192C88.4585 8.95526 88.4102 8.90692 88.3135 8.90692H86.6605C86.5638 8.90692 86.4768 8.87792 86.3995 8.81992C86.3415 8.74259 86.3125 8.65559 86.3125 8.55892V6.52892C86.3125 6.43226 86.3415 6.35492 86.3995 6.29692C86.4768 6.21959 86.5638 6.18092 86.6605 6.18092H88.3135C88.4102 6.18092 88.4585 6.13259 88.4585 6.03592V2.64292C88.4585 2.54626 88.4875 2.46892 88.5455 2.41092C88.6228 2.33359 88.7098 2.29492 88.8065 2.29492H91.3295C91.4262 2.29492 91.5035 2.33359 91.5615 2.41092C91.6388 2.46892 91.6775 2.54626 91.6775 2.64292V6.03592C91.6775 6.13259 91.7258 6.18092 91.8225 6.18092H94.7805C94.8772 6.18092 94.9545 6.21959 95.0125 6.29692C95.0898 6.35492 95.1285 6.43226 95.1285 6.52892V8.55892Z" fill="white"/>
<path d="M77.9996 5.94922C79.2176 5.94922 80.2906 6.16189 81.2186 6.58722C82.1466 7.01255 82.8619 7.60222 83.3646 8.35622C83.8673 9.09089 84.1186 9.93189 84.1186 10.8792V20.6522C84.1186 20.7489 84.0799 20.8359 84.0026 20.9132C83.9446 20.9712 83.8673 21.0002 83.7706 21.0002H81.1026C81.0059 21.0002 80.9189 20.9712 80.8416 20.9132C80.7836 20.8359 80.7546 20.7489 80.7546 20.6522V19.7242C80.7546 19.6662 80.7353 19.6372 80.6966 19.6372C80.6579 19.6179 80.6193 19.6276 80.5806 19.6662C79.6333 20.7102 78.2606 21.2322 76.4626 21.2322C75.0126 21.2322 73.8139 20.8649 72.8666 20.1302C71.9386 19.3956 71.4746 18.3032 71.4746 16.8532C71.4746 15.3452 71.9966 14.1756 73.0406 13.3442C74.1039 12.4936 75.5926 12.0682 77.5066 12.0682H80.6096C80.7063 12.0682 80.7546 12.0199 80.7546 11.9232V11.2272C80.7546 10.4732 80.5323 9.89322 80.0876 9.48722C79.6429 9.06189 78.9759 8.84922 78.0866 8.84922C77.3519 8.84922 76.7526 8.98455 76.2886 9.25522C75.8439 9.50655 75.5636 9.86422 75.4476 10.3282C75.3896 10.5602 75.2543 10.6569 75.0416 10.6182L72.2286 10.2702C72.1319 10.2509 72.0449 10.2219 71.9676 10.1832C71.9096 10.1252 71.8903 10.0576 71.9096 9.98022C72.0643 8.80089 72.6926 7.83422 73.7946 7.08022C74.9159 6.32622 76.3176 5.94922 77.9996 5.94922ZM77.3036 18.5642C78.2509 18.5642 79.0629 18.3129 79.7396 17.8102C80.4163 17.3076 80.7546 16.6696 80.7546 15.8962V14.5332C80.7546 14.4366 80.7063 14.3882 80.6096 14.3882H78.1736C77.1489 14.3882 76.3369 14.5816 75.7376 14.9682C75.1576 15.3549 74.8676 15.9059 74.8676 16.6212C74.8676 17.2399 75.0899 17.7232 75.5346 18.0712C75.9986 18.3999 76.5883 18.5642 77.3036 18.5642Z" fill="white"/>
<path d="M68.6438 10.0102C68.9725 11.0928 69.1368 12.2722 69.1368 13.5482C69.1368 14.9208 68.9532 16.1292 68.5858 17.1732C68.1605 18.4492 67.4742 19.4448 66.5268 20.1602C65.5795 20.8755 64.4195 21.2332 63.0468 21.2332C61.6935 21.2332 60.5818 20.7208 59.7118 19.6962C59.6732 19.6382 59.6345 19.6188 59.5958 19.6382C59.5572 19.6575 59.5378 19.6962 59.5378 19.7542V20.6532C59.5378 20.7498 59.4992 20.8368 59.4218 20.9142C59.3638 20.9722 59.2865 21.0012 59.1898 21.0012H56.5218C56.4252 21.0012 56.3382 20.9722 56.2608 20.9142C56.2028 20.8368 56.1738 20.7498 56.1738 20.6532V1.04917C56.1738 0.952506 56.2028 0.875172 56.2608 0.817172C56.3382 0.739839 56.4252 0.701172 56.5218 0.701172H59.1898C59.2865 0.701172 59.3638 0.739839 59.4218 0.817172C59.4992 0.875172 59.5378 0.952506 59.5378 1.04917V7.34217C59.5378 7.40017 59.5572 7.43884 59.5958 7.45817C59.6345 7.47751 59.6732 7.46784 59.7118 7.42917C60.5432 6.44317 61.6452 5.95017 63.0178 5.95017C64.4485 5.95017 65.6278 6.30784 66.5558 7.02317C67.5032 7.73851 68.1992 8.73417 68.6438 10.0102ZM64.9898 16.9412C65.4538 16.1292 65.6858 15.0175 65.6858 13.6062C65.6858 12.0982 65.3958 10.9188 64.8158 10.0682C64.2938 9.25617 63.5205 8.85017 62.4958 8.85017C61.5485 8.85017 60.8235 9.27551 60.3208 10.1262C59.8375 10.9188 59.5958 12.0692 59.5958 13.5772C59.5958 15.0658 59.8182 16.1872 60.2628 16.9412C60.7655 17.8692 61.5195 18.3332 62.5248 18.3332C63.0662 18.3332 63.5495 18.2172 63.9748 17.9852C64.4002 17.7338 64.7385 17.3858 64.9898 16.9412Z" fill="white"/>
<path d="M49.2132 6.52964C49.2132 6.43297 49.2423 6.35564 49.3003 6.29764C49.3776 6.22031 49.4646 6.18164 49.5612 6.18164H52.2002C52.2969 6.18164 52.3743 6.22031 52.4323 6.29764C52.5096 6.35564 52.5483 6.43297 52.5483 6.52964V20.6526C52.5483 20.7493 52.5096 20.8363 52.4323 20.9136C52.3743 20.9716 52.2969 21.0006 52.2002 21.0006H49.5612C49.4646 21.0006 49.3776 20.9716 49.3003 20.9136C49.2423 20.8363 49.2132 20.7493 49.2132 20.6526V19.7246C49.2132 19.6666 49.1939 19.628 49.1553 19.6086C49.1166 19.5893 49.0779 19.6086 49.0392 19.6666C48.2466 20.6913 47.0576 21.2036 45.4722 21.2036C44.0029 21.2036 42.7656 20.7783 41.7603 19.9276C40.7742 19.077 40.2812 17.8686 40.2812 16.3026V6.52964C40.2812 6.43297 40.3102 6.35564 40.3682 6.29764C40.4456 6.22031 40.5326 6.18164 40.6292 6.18164H43.2972C43.3939 6.18164 43.4713 6.22031 43.5293 6.29764C43.6066 6.35564 43.6452 6.43297 43.6452 6.52964V15.3456C43.6452 16.2543 43.8773 16.9793 44.3413 17.5206C44.8246 18.062 45.4916 18.3326 46.3423 18.3326C47.2123 18.3326 47.9082 18.062 48.4302 17.5206C48.9522 16.9793 49.2132 16.2543 49.2132 15.3456V6.52964Z" fill="white"/>
<path d="M31.2256 21.2322C29.7369 21.2322 28.4512 20.8552 27.3686 20.1012C26.2859 19.3279 25.5319 18.2936 25.1066 16.9982C24.7972 16.1282 24.6426 14.9682 24.6426 13.5182C24.6426 12.1262 24.7972 10.9856 25.1066 10.0962C25.5126 8.82022 26.2569 7.81489 27.3396 7.08022C28.4416 6.32622 29.7369 5.94922 31.2256 5.94922C32.7336 5.94922 34.0482 6.32622 35.1696 7.08022C36.2909 7.83422 37.0352 8.78155 37.4026 9.92222C37.4992 10.2316 37.5669 10.5409 37.6056 10.8502V10.9082C37.6056 11.1016 37.4992 11.2176 37.2866 11.2562L34.6766 11.6332H34.6186C34.4446 11.6332 34.3286 11.5366 34.2706 11.3432C34.2706 11.2466 34.2609 11.1692 34.2416 11.1112C34.2029 10.9566 34.1642 10.8212 34.1256 10.7052C33.9516 10.1639 33.6036 9.71922 33.0816 9.37122C32.5596 9.02322 31.9409 8.84922 31.2256 8.84922C30.4909 8.84922 29.8626 9.04255 29.3406 9.42922C28.8379 9.79655 28.4996 10.3089 28.3256 10.9662C28.1322 11.5849 28.0356 12.4452 28.0356 13.5472C28.0356 14.6106 28.1226 15.4709 28.2966 16.1282C28.4899 16.8049 28.8379 17.3462 29.3406 17.7522C29.8432 18.1389 30.4716 18.3322 31.2256 18.3322C31.9602 18.3322 32.5886 18.1486 33.1106 17.7812C33.6519 17.3946 33.9999 16.8822 34.1546 16.2442C34.1739 16.2056 34.1836 16.1572 34.1836 16.0992C34.2029 16.0799 34.2126 16.0509 34.2126 16.0122C34.2706 15.7802 34.4059 15.6836 34.6186 15.7222L37.2286 16.1282C37.3252 16.1476 37.4026 16.1959 37.4606 16.2732C37.5379 16.3312 37.5669 16.4182 37.5476 16.5342C37.4896 16.8436 37.4412 17.0659 37.4026 17.2012C37.0352 18.4386 36.2909 19.4246 35.1696 20.1592C34.0482 20.8746 32.7336 21.2322 31.2256 21.2322Z" fill="white"/>
<path d="M16.4937 5.94922C18.0597 5.94922 19.3067 6.41322 20.2347 7.34122C21.182 8.26922 21.6557 9.53555 21.6557 11.1402V20.6522C21.6557 20.7489 21.617 20.8359 21.5397 20.9132C21.4817 20.9712 21.4043 21.0002 21.3077 21.0002H18.6397C18.543 21.0002 18.456 20.9712 18.3787 20.9132C18.3207 20.8359 18.2917 20.7489 18.2917 20.6522V11.8362C18.2917 10.9469 18.0403 10.2316 17.5377 9.69022C17.035 9.12955 16.368 8.84922 15.5367 8.84922C14.7053 8.84922 14.0287 9.11989 13.5067 9.66122C13.004 10.2026 12.7527 10.9179 12.7527 11.8072V20.6522C12.7527 20.7489 12.714 20.8359 12.6367 20.9132C12.5787 20.9712 12.5013 21.0002 12.4047 21.0002H9.73667C9.64 21.0002 9.55301 20.9712 9.47567 20.9132C9.41767 20.8359 9.38867 20.7489 9.38867 20.6522V6.52922C9.38867 6.43255 9.41767 6.35522 9.47567 6.29722C9.55301 6.21989 9.64 6.18122 9.73667 6.18122H12.4047C12.5013 6.18122 12.5787 6.21989 12.6367 6.29722C12.714 6.35522 12.7527 6.43255 12.7527 6.52922V7.45722C12.7527 7.51522 12.772 7.55389 12.8107 7.57322C12.8493 7.59255 12.8783 7.57322 12.8977 7.51522C13.6903 6.47122 14.889 5.94922 16.4937 5.94922Z" fill="white"/>
<path d="M2.46519 21.0012C2.36852 21.0012 2.28152 20.9722 2.20419 20.9142C2.14619 20.8368 2.11719 20.7498 2.11719 20.6532V1.04917C2.11719 0.952506 2.14619 0.875172 2.20419 0.817172C2.28152 0.739839 2.36852 0.701172 2.46519 0.701172H5.13319C5.22985 0.701172 5.30719 0.739839 5.36519 0.817172C5.44252 0.875172 5.48119 0.952506 5.48119 1.04917V20.6532C5.48119 20.7498 5.44252 20.8368 5.36519 20.9142C5.30719 20.9722 5.22985 21.0012 5.13319 21.0012H2.46519Z" fill="white"/>
<path d="M133.622 58.7713C133.564 58.7713 133.515 58.7327 133.477 58.6553C133.438 58.5973 133.419 58.52 133.419 58.4233V56.3353C133.419 56.2387 133.448 56.1517 133.506 56.0743C133.583 56.0163 133.67 55.9873 133.767 55.9873H133.796C134.588 55.968 135.207 55.881 135.652 55.7263C136.096 55.591 136.464 55.3203 136.754 54.9143C137.044 54.5083 137.305 53.8993 137.537 53.0873C137.556 53.0487 137.556 52.9907 137.537 52.9133L132.752 38.5583C132.732 38.5197 132.723 38.4713 132.723 38.4133C132.723 38.2393 132.819 38.1523 133.013 38.1523H135.855C136.067 38.1523 136.203 38.249 136.261 38.4423L139.161 48.6503C139.18 48.7083 139.209 48.7373 139.248 48.7373C139.286 48.7373 139.315 48.7083 139.335 48.6503L142.235 38.4423C142.293 38.249 142.428 38.1523 142.641 38.1523H145.396C145.512 38.1523 145.589 38.191 145.628 38.2683C145.686 38.3263 145.695 38.423 145.657 38.5583L140.553 53.8123C140.069 55.185 139.596 56.2097 139.132 56.8863C138.668 57.563 138.03 58.0463 137.218 58.3363C136.425 58.6263 135.294 58.7713 133.825 58.7713H133.622Z" fill="white"/>
<path d="M127.074 38.5292C127.074 38.4326 127.103 38.3552 127.161 38.2972C127.239 38.2199 127.326 38.1812 127.422 38.1812H130.09C130.187 38.1812 130.264 38.2199 130.322 38.2972C130.4 38.3552 130.438 38.4326 130.438 38.5292V52.0142C130.438 54.4309 129.742 56.1516 128.35 57.1762C126.978 58.2202 125.17 58.7422 122.927 58.7422C122.328 58.7422 121.738 58.7132 121.158 58.6552C120.946 58.6359 120.839 58.5102 120.839 58.2782L120.926 55.9002C120.926 55.6876 121.062 55.5812 121.332 55.5812C121.893 55.6392 122.396 55.6682 122.84 55.6682C124.29 55.6682 125.354 55.3782 126.03 54.7982C126.726 54.2376 127.074 53.2806 127.074 51.9272V51.6952C127.074 51.6372 127.055 51.6082 127.016 51.6082C126.978 51.5889 126.939 51.5986 126.9 51.6372C126.108 52.4879 124.986 52.9132 123.536 52.9132C122.28 52.9132 121.129 52.5942 120.085 51.9562C119.041 51.3182 118.316 50.3419 117.91 49.0272C117.659 48.1186 117.533 46.9489 117.533 45.5182C117.533 43.9136 117.688 42.6859 117.997 41.8352C118.384 40.6559 119.051 39.7182 119.998 39.0222C120.946 38.3069 122.057 37.9492 123.333 37.9492C124.861 37.9492 126.05 38.3939 126.9 39.2832C126.939 39.3412 126.978 39.3606 127.016 39.3412C127.055 39.3219 127.074 39.2832 127.074 39.2252V38.5292ZM126.871 48.0702C126.949 47.7802 126.997 47.4709 127.016 47.1422C127.055 46.7942 127.074 46.2432 127.074 45.4892C127.074 44.7546 127.055 44.2326 127.016 43.9232C126.997 43.5946 126.939 43.2756 126.842 42.9662C126.688 42.3282 126.369 41.8159 125.885 41.4292C125.421 41.0426 124.822 40.8492 124.087 40.8492C123.391 40.8492 122.802 41.0426 122.318 41.4292C121.835 41.8159 121.487 42.3282 121.274 42.9662C121.042 43.5076 120.926 44.3582 120.926 45.5182C120.926 46.7169 121.023 47.5579 121.216 48.0412C121.41 48.6599 121.758 49.1722 122.26 49.5782C122.782 49.9649 123.401 50.1582 124.116 50.1582C124.87 50.1582 125.479 49.9649 125.943 49.5782C126.407 49.1916 126.717 48.6889 126.871 48.0702Z" fill="white"/>
<path d="M108.175 53.2322C106.648 53.2322 105.333 52.8456 104.231 52.0722C103.149 51.2989 102.385 50.2259 101.94 48.8532C101.612 47.8092 101.447 46.7072 101.447 45.5472C101.447 44.3099 101.602 43.2079 101.911 42.2412C102.356 40.8879 103.129 39.8342 104.231 39.0802C105.333 38.3262 106.658 37.9492 108.204 37.9492C109.674 37.9492 110.94 38.3262 112.003 39.0802C113.086 39.8342 113.85 40.8782 114.294 42.2122C114.642 43.1402 114.816 44.2422 114.816 45.5182C114.816 46.7362 114.652 47.8382 114.323 48.8242C113.879 50.1969 113.115 51.2796 112.032 52.0722C110.95 52.8456 109.664 53.2322 108.175 53.2322ZM108.175 50.3322C108.891 50.3322 109.5 50.1292 110.002 49.7232C110.524 49.3172 110.901 48.7469 111.133 48.0122C111.327 47.3742 111.423 46.5622 111.423 45.5762C111.423 44.5322 111.327 43.7202 111.133 43.1402C110.921 42.4056 110.553 41.8449 110.031 41.4582C109.509 41.0522 108.871 40.8492 108.117 40.8492C107.402 40.8492 106.783 41.0522 106.261 41.4582C105.739 41.8449 105.362 42.4056 105.13 43.1402C104.937 43.8169 104.84 44.6289 104.84 45.5762C104.84 46.5236 104.937 47.3356 105.13 48.0122C105.343 48.7469 105.71 49.3172 106.232 49.7232C106.774 50.1292 107.421 50.3322 108.175 50.3322Z" fill="white"/>
<path d="M95.2914 53.0012C95.1947 53.0012 95.1077 52.9722 95.0304 52.9142C94.9724 52.8368 94.9434 52.7498 94.9434 52.6532V33.0492C94.9434 32.9525 94.9724 32.8752 95.0304 32.8172C95.1077 32.7398 95.1947 32.7012 95.2914 32.7012H97.9594C98.056 32.7012 98.1334 32.7398 98.1914 32.8172C98.2687 32.8752 98.3074 32.9525 98.3074 33.0492V52.6532C98.3074 52.7498 98.2687 52.8368 98.1914 52.9142C98.1334 52.9722 98.056 53.0012 97.9594 53.0012H95.2914Z" fill="white"/>
<path d="M85.1225 53.2322C83.5952 53.2322 82.2805 52.8456 81.1785 52.0722C80.0959 51.2989 79.3322 50.2259 78.8875 48.8532C78.5589 47.8092 78.3945 46.7072 78.3945 45.5472C78.3945 44.3099 78.5492 43.2079 78.8585 42.2412C79.3032 40.8879 80.0765 39.8342 81.1785 39.0802C82.2805 38.3262 83.6049 37.9492 85.1515 37.9492C86.6209 37.9492 87.8872 38.3262 88.9505 39.0802C90.0332 39.8342 90.7969 40.8782 91.2415 42.2122C91.5895 43.1402 91.7635 44.2422 91.7635 45.5182C91.7635 46.7362 91.5992 47.8382 91.2705 48.8242C90.8259 50.1969 90.0622 51.2796 88.9795 52.0722C87.8969 52.8456 86.6112 53.2322 85.1225 53.2322ZM85.1225 50.3322C85.8379 50.3322 86.4469 50.1292 86.9495 49.7232C87.4715 49.3172 87.8485 48.7469 88.0805 48.0122C88.2739 47.3742 88.3705 46.5622 88.3705 45.5762C88.3705 44.5322 88.2739 43.7202 88.0805 43.1402C87.8679 42.4056 87.5005 41.8449 86.9785 41.4582C86.4565 41.0522 85.8185 40.8492 85.0645 40.8492C84.3492 40.8492 83.7305 41.0522 83.2085 41.4582C82.6865 41.8449 82.3095 42.4056 82.0775 43.1402C81.8842 43.8169 81.7875 44.6289 81.7875 45.5762C81.7875 46.5236 81.8842 47.3356 82.0775 48.0122C82.2902 48.7469 82.6575 49.3172 83.1795 49.7232C83.7209 50.1292 84.3685 50.3322 85.1225 50.3322Z" fill="white"/>
<path d="M70.273 37.9492C71.839 37.9492 73.086 38.4132 74.014 39.3412C74.9613 40.2692 75.435 41.5356 75.435 43.1402V52.6522C75.435 52.7489 75.3963 52.8359 75.319 52.9132C75.261 52.9712 75.1836 53.0002 75.087 53.0002H72.419C72.3223 53.0002 72.2353 52.9712 72.158 52.9132C72.1 52.8359 72.071 52.7489 72.071 52.6522V43.8362C72.071 42.9469 71.8196 42.2316 71.317 41.6902C70.8143 41.1296 70.1473 40.8492 69.316 40.8492C68.4846 40.8492 67.808 41.1199 67.286 41.6612C66.7833 42.2026 66.532 42.9179 66.532 43.8072V52.6522C66.532 52.7489 66.4933 52.8359 66.416 52.9132C66.358 52.9712 66.2806 53.0002 66.184 53.0002H63.516C63.4193 53.0002 63.3323 52.9712 63.255 52.9132C63.197 52.8359 63.168 52.7489 63.168 52.6522V38.5292C63.168 38.4326 63.197 38.3552 63.255 38.2972C63.3323 38.2199 63.4193 38.1812 63.516 38.1812H66.184C66.2806 38.1812 66.358 38.2199 66.416 38.2972C66.4933 38.3552 66.532 38.4326 66.532 38.5292V39.4572C66.532 39.5152 66.5513 39.5539 66.59 39.5732C66.6286 39.5926 66.6576 39.5732 66.677 39.5152C67.4696 38.4712 68.6683 37.9492 70.273 37.9492Z" fill="white"/>
<path d="M54.4995 37.9502C56.0655 37.9502 57.3125 38.4142 58.2405 39.3422C59.1879 40.2702 59.6615 41.5365 59.6615 43.1412V52.6532C59.6615 52.7498 59.6229 52.8368 59.5455 52.9142C59.4875 52.9722 59.4102 53.0012 59.3135 53.0012H56.6455C56.5489 53.0012 56.4619 52.9722 56.3845 52.9142C56.3265 52.8368 56.2975 52.7498 56.2975 52.6532V43.8372C56.2975 42.9478 56.0462 42.2325 55.5435 41.6912C55.0409 41.1305 54.3739 40.8502 53.5425 40.8502C52.7112 40.8502 52.0345 41.1208 51.5125 41.6622C51.0099 42.2035 50.7585 42.9188 50.7585 43.8082V52.6532C50.7585 52.7498 50.7199 52.8368 50.6425 52.9142C50.5845 52.9722 50.5072 53.0012 50.4105 53.0012H47.7425C47.6459 53.0012 47.5589 52.9722 47.4815 52.9142C47.4235 52.8368 47.3945 52.7498 47.3945 52.6532V33.0492C47.3945 32.9525 47.4235 32.8752 47.4815 32.8172C47.5589 32.7398 47.6459 32.7012 47.7425 32.7012H50.4105C50.5072 32.7012 50.5845 32.7398 50.6425 32.8172C50.7199 32.8752 50.7585 32.9525 50.7585 33.0492V39.4582C50.7585 39.5162 50.7779 39.5548 50.8165 39.5742C50.8552 39.5935 50.8842 39.5742 50.9035 39.5162C51.6962 38.4722 52.8949 37.9502 54.4995 37.9502Z" fill="white"/>
<path d="M38.165 53.2322C36.6764 53.2322 35.3907 52.8552 34.308 52.1012C33.2254 51.3279 32.4714 50.2936 32.046 48.9982C31.7367 48.1282 31.582 46.9682 31.582 45.5182C31.582 44.1262 31.7367 42.9856 32.046 42.0962C32.452 40.8202 33.1964 39.8149 34.279 39.0802C35.381 38.3262 36.6764 37.9492 38.165 37.9492C39.673 37.9492 40.9877 38.3262 42.109 39.0802C43.2304 39.8342 43.9747 40.7816 44.342 41.9222C44.4387 42.2316 44.5064 42.5409 44.545 42.8502V42.9082C44.545 43.1016 44.4387 43.2176 44.226 43.2562L41.616 43.6332H41.558C41.384 43.6332 41.268 43.5366 41.21 43.3432C41.21 43.2466 41.2004 43.1692 41.181 43.1112C41.1424 42.9566 41.1037 42.8212 41.065 42.7052C40.891 42.1639 40.543 41.7192 40.021 41.3712C39.499 41.0232 38.8804 40.8492 38.165 40.8492C37.4304 40.8492 36.802 41.0426 36.28 41.4292C35.7774 41.7966 35.439 42.3089 35.265 42.9662C35.0717 43.5849 34.975 44.4452 34.975 45.5472C34.975 46.6106 35.062 47.4709 35.236 48.1282C35.4294 48.8049 35.7774 49.3462 36.28 49.7522C36.7827 50.1389 37.411 50.3322 38.165 50.3322C38.8997 50.3322 39.528 50.1486 40.05 49.7812C40.5914 49.3946 40.9394 48.8822 41.094 48.2442C41.1134 48.2056 41.123 48.1572 41.123 48.0992C41.1424 48.0799 41.152 48.0509 41.152 48.0122C41.21 47.7802 41.3454 47.6836 41.558 47.7222L44.168 48.1282C44.2647 48.1476 44.342 48.1959 44.4 48.2732C44.4774 48.3312 44.5064 48.4182 44.487 48.5342C44.429 48.8436 44.3807 49.0659 44.342 49.2012C43.9747 50.4386 43.2304 51.4246 42.109 52.1592C40.9877 52.8746 39.673 53.2322 38.165 53.2322Z" fill="white"/>
<path d="M28.7982 43.9232C28.8755 44.4066 28.9142 44.9479 28.9142 45.5472L28.8852 46.4462C28.8852 46.6782 28.7692 46.7942 28.5372 46.7942H19.4602C19.3635 46.7942 19.3152 46.8426 19.3152 46.9392C19.3732 47.5772 19.4602 48.0122 19.5762 48.2442C20.0402 49.6362 21.1712 50.3419 22.9692 50.3612C24.2838 50.3612 25.3278 49.8199 26.1012 48.7372C26.1785 48.6212 26.2752 48.5632 26.3912 48.5632C26.4685 48.5632 26.5362 48.5922 26.5942 48.6502L28.3922 50.1292C28.5662 50.2646 28.5952 50.4192 28.4792 50.5932C27.8798 51.4439 27.0775 52.1012 26.0722 52.5652C25.0862 53.0292 23.9842 53.2612 22.7662 53.2612C21.2582 53.2612 19.9725 52.9229 18.9092 52.2462C17.8652 51.5696 17.1015 50.6222 16.6182 49.4042C16.1735 48.3602 15.9512 46.9102 15.9512 45.0542C15.9512 43.9329 16.0672 43.0242 16.2992 42.3282C16.6858 40.9749 17.4108 39.9116 18.4742 39.1382C19.5568 38.3456 20.8522 37.9492 22.3602 37.9492C26.1688 37.9492 28.3148 39.9406 28.7982 43.9232ZM22.3602 40.8492C21.6448 40.8492 21.0455 41.0329 20.5622 41.4002C20.0982 41.7482 19.7695 42.2412 19.5762 42.8792C19.4602 43.2079 19.3828 43.6332 19.3442 44.1552C19.3055 44.2519 19.3442 44.3002 19.4602 44.3002H25.3472C25.4438 44.3002 25.4922 44.2519 25.4922 44.1552C25.4535 43.6719 25.3955 43.3046 25.3182 43.0532C25.1442 42.3572 24.7962 41.8159 24.2742 41.4292C23.7715 41.0426 23.1335 40.8492 22.3602 40.8492Z" fill="white"/>
<path d="M15.4573 32.7012C15.554 32.7012 15.6313 32.7398 15.6893 32.8172C15.7667 32.8752 15.8053 32.9525 15.8053 33.0492V35.2822C15.8053 35.3788 15.7667 35.4658 15.6893 35.5432C15.6313 35.6012 15.554 35.6302 15.4573 35.6302H10.1213C10.0247 35.6302 9.97633 35.6785 9.97633 35.7752V52.6532C9.97633 52.7498 9.93766 52.8368 9.86033 52.9142C9.80233 52.9722 9.72499 53.0012 9.62833 53.0012H6.96033C6.86366 53.0012 6.77666 52.9722 6.69933 52.9142C6.64133 52.8368 6.61233 52.7498 6.61233 52.6532V35.7752C6.61233 35.6785 6.56399 35.6302 6.46733 35.6302H1.33433C1.23766 35.6302 1.15066 35.6012 1.07333 35.5432C1.01533 35.4658 0.986328 35.3788 0.986328 35.2822V33.0492C0.986328 32.9525 1.01533 32.8752 1.07333 32.8172C1.15066 32.7398 1.23766 32.7012 1.33433 32.7012H15.4573Z" fill="white"/>
</svg>
