<svg width="82" height="52" viewBox="0 0 82 52" fill="none" xmlns="http://www.w3.org/2000/svg">
<mask id="mask0_262_182" style="mask-type:luminance" maskUnits="userSpaceOnUse" x="4" y="8" width="75" height="35">
<path d="M78.8752 8H4.22656V42.807H78.8752V8Z" fill="white"/>
</mask>
<g mask="url(#mask0_262_182)">
<path d="M12.7517 12.7216C13.0432 13.6298 13.3346 14.5747 13.6261 15.5563C13.9175 16.538 14.1924 17.505 14.4506 18.4575H14.4961C14.7741 17.5044 15.0656 16.5374 15.3704 15.5563C15.6753 14.5753 15.9784 13.6304 16.2798 12.7216L17.837 8H24.5496V23.1057H20.3465V18.3456C20.3465 17.7825 20.3503 17.1838 20.3579 16.5496C20.3654 15.9154 20.373 15.2698 20.3806 14.6129C20.3882 13.9571 20.3958 13.3077 20.4033 12.6648C20.4109 12.0218 20.4226 11.4124 20.4383 10.8365H20.392C20.2521 11.313 20.0912 11.8472 19.9049 12.4374C19.7187 13.0276 19.5255 13.6231 19.3244 14.2238C19.1232 14.8245 18.9326 15.3928 18.7543 15.9332C18.5759 16.4735 18.4168 16.9317 18.2795 17.3077L16.1897 23.1074H12.3329L10.2204 17.264C10.1592 17.0891 10.0353 16.7283 9.84878 16.1815C9.66225 15.6347 9.46085 15.0285 9.24459 14.3628C9.02833 13.6995 8.81294 13.0393 8.59843 12.3824C8.38158 11.7266 8.21895 11.2089 8.1114 10.8356H8.06156C8.07672 11.4121 8.08837 12.0215 8.09654 12.6639C8.1047 13.3063 8.11227 13.9556 8.11927 14.612C8.12685 15.2678 8.13472 15.9134 8.14288 16.5487C8.14987 17.1835 8.15424 17.7834 8.15424 18.3447V23.1048H4.22656V8H11.2399L12.7499 12.7216H12.7517Z" fill="white"/>
<path d="M33.3068 8H28.9043V23.1057H33.3068V8Z" fill="white"/>
<path d="M77.8536 8H73.4512V23.1057H77.8536V8Z" fill="white"/>
<path d="M43.037 8.00013C43.9674 7.9971 44.8973 8.04819 45.8218 8.15314C46.6081 8.23026 47.3786 8.42326 48.1083 8.72586C48.7198 8.97842 49.2533 9.38877 49.6542 9.915C50.0588 10.5084 50.2592 11.2174 50.2252 11.9348C50.2628 12.8123 49.9573 13.67 49.3735 14.3262C48.658 15.0122 47.7358 15.4425 46.7504 15.5503V15.5923C47.2615 15.6764 47.7428 15.8888 48.1494 16.2096C48.5483 16.5744 48.8518 17.0313 49.0334 17.5404L51.229 23.1032H46.8431L45.5665 19.3591C45.4559 19.0112 45.3134 18.6743 45.1407 18.3527C45.0099 18.1073 44.8315 17.8903 44.6161 17.7144C44.4043 17.5517 44.1597 17.4371 43.8991 17.3786C43.5713 17.3084 43.2366 17.2762 42.9014 17.2825H41.9571V23.1032H37.6797V8.00013H43.037ZM41.9615 14.4495H42.6995C43.5582 14.4992 44.417 14.3514 45.2098 14.0176C45.4737 13.8879 45.6933 13.6829 45.8407 13.4284C45.9881 13.1739 46.0567 12.8814 46.0378 12.588C46.0625 12.3008 45.9942 12.0133 45.843 11.7679C45.6919 11.5225 45.4659 11.3321 45.1984 11.2248C44.395 10.9551 43.5487 10.8365 42.7021 10.8751H41.9641V14.4495H41.9615Z" fill="white"/>
<path d="M71.0469 23.1057H66.2685L65.0514 19.881H58.915L57.6271 23.1057H53.2246L59.4536 8H64.7226L71.0469 23.1057ZM63.363 15.0125C63.2694 14.7231 63.1601 14.3855 63.0351 13.9964L62.6608 12.8274C62.5367 12.4374 62.4201 12.0696 62.3111 11.724C62.2018 11.3742 62.1231 11.1049 62.0768 10.9029H62.0313C61.985 11.1049 61.9063 11.3786 61.797 11.724C61.6877 12.0693 61.567 12.4374 61.4341 12.8274C61.3012 13.2174 61.1674 13.6065 61.0354 13.9964C60.9034 14.3864 60.7827 14.7248 60.6734 15.0125L59.9241 17.0471H64.0467L63.3682 15.0125H63.363Z" fill="white"/>
<path d="M11.0644 29.4613C10.6749 29.2682 10.2641 29.1215 9.84032 29.0241C9.46542 28.9425 9.08295 28.9006 8.69926 28.8991C8.31747 28.8926 7.93802 28.96 7.58182 29.0976C7.26813 29.2203 6.98257 29.4053 6.74242 29.6414C6.51457 29.867 6.33433 30.136 6.21237 30.4324C6.09041 30.7289 6.02922 31.0469 6.03243 31.3675C6.03046 31.6329 6.06339 31.8975 6.13036 32.1544C6.20521 32.4195 6.32951 32.6681 6.49672 32.8871C6.711 33.1667 6.96491 33.4135 7.25043 33.6198C7.6528 33.9133 8.0813 34.1691 8.53051 34.384C9.48523 34.8114 10.3367 35.4395 11.0268 36.2255C11.554 36.9143 11.8276 37.7638 11.8015 38.6309C11.8074 39.2039 11.7084 39.7731 11.5095 40.3105C11.3261 40.8042 11.04 41.2534 10.6701 41.6282C10.2873 42.0091 9.82849 42.305 9.32357 42.4965C8.75348 42.7127 8.14775 42.8195 7.5381 42.8112C7.03957 42.8113 6.54206 42.7662 6.05166 42.6766C5.58537 42.5928 5.13031 42.4555 4.69551 42.2674L4.84678 40.8867C5.26804 41.1142 5.71677 41.2867 6.18194 41.4C6.61166 41.5024 7.05176 41.5549 7.4935 41.5565C7.87822 41.5794 8.26365 41.5256 8.62737 41.3981C8.99109 41.2707 9.32583 41.0722 9.61211 40.8142C9.87174 40.5485 10.0736 40.232 10.205 39.8846C10.3363 39.5371 10.3944 39.1662 10.3754 38.7952C10.3801 38.4798 10.3383 38.1655 10.2513 37.8623C10.1593 37.5648 10.0109 37.2878 9.81409 37.0465C9.57583 36.7605 9.30096 36.5071 8.99655 36.2928C8.59183 36.0093 8.16357 35.7609 7.71647 35.5505C7.18349 35.2951 6.6756 34.9903 6.19943 34.6402C5.8402 34.3776 5.52448 34.0601 5.26385 33.6994C5.04124 33.3883 4.87628 33.0397 4.77683 32.6703C4.68019 32.2909 4.63316 31.9006 4.63693 31.5091C4.63376 30.9968 4.72874 30.4887 4.91673 30.0122C5.09523 29.5573 5.36617 29.1443 5.71241 28.7994C6.07272 28.448 6.50083 28.1737 6.97063 27.9932C7.51027 27.7902 8.0834 27.6908 8.65992 27.7003C9.10298 27.6992 9.5454 27.734 9.98284 27.8044C10.4139 27.8768 10.8358 27.9958 11.2411 28.1594L11.0662 29.4552L11.0644 29.4613Z" fill="white"/>
<path d="M17.1167 27.701C17.7834 27.6992 18.4491 27.7533 19.1067 27.8627C19.7088 27.9577 20.2862 28.1708 20.8057 28.4897C21.3066 28.8058 21.7179 29.2454 22 29.7662C22.3268 30.42 22.4827 31.1458 22.453 31.8761C22.4726 32.5507 22.3362 33.2207 22.0543 33.8338C21.7947 34.3679 21.4069 34.8293 20.9254 35.1769C20.4041 35.5459 19.8162 35.8105 19.1942 35.9559C18.4784 36.1275 17.7443 36.2112 17.0083 36.2051H16.3411V42.8049H14.9648V27.6992H17.1167V27.701ZM16.321 35.0142H16.8579C17.3852 35.0161 17.9118 34.9728 18.4317 34.8848C18.8989 34.8112 19.3479 34.6495 19.7547 34.4083C20.1368 34.1751 20.452 33.8467 20.6693 33.4552C20.9204 32.9679 21.0409 32.4239 21.019 31.8761C21.0377 31.3673 20.9302 30.8617 20.706 30.4045C20.5083 30.0253 20.2108 29.7072 19.8456 29.4847C19.4515 29.251 19.0169 29.0935 18.5646 29.0204C18.0449 28.9309 17.5182 28.8876 16.9908 28.891H16.3236V35.0116L16.321 35.0142Z" fill="white"/>
<path d="M31.5154 27.7019V28.892H26.3522V34.3446H31.2365V35.5346H26.3522V41.5677H31.6859V42.8024H24.9961V27.7002H31.5154V27.7019Z" fill="white"/>
<path d="M46.0562 42.8083H44.4596L43.0484 38.6751H36.6384L35.1817 42.8083H33.6777L39.0927 27.7026H40.782L46.0588 42.8083H46.0562ZM42.6777 37.4851C42.153 35.9112 41.7249 34.6204 41.3932 33.6125C41.0615 32.6047 40.7945 31.786 40.5923 31.1564C40.3906 30.5292 40.2449 30.0457 40.1551 29.7058C40.0633 29.3666 39.9802 29.0833 39.9234 28.8516H39.877C39.8158 29.0833 39.7328 29.3683 39.6331 29.7058C39.5334 30.0433 39.3778 30.5277 39.1714 31.1564C38.9651 31.7851 38.6879 32.6035 38.3486 33.6116C38.0094 34.6198 37.5617 35.9121 37.0065 37.4842L42.6777 37.4851Z" fill="white"/>
<path d="M49.9798 42.8066H48.6035V27.701H49.9798V34.6269H50.0217C50.2234 34.3529 50.4388 34.0571 50.6679 33.7394C50.8979 33.4229 51.203 33.0102 51.5825 32.5048C51.962 31.9994 52.4429 31.3681 53.0243 30.6004C53.6058 29.8327 54.3473 28.8691 55.2505 27.6992H56.973L51.3359 34.7965L57.3813 42.8049H55.5731C54.5548 41.4059 53.7265 40.2628 53.0882 39.3756C52.4499 38.4884 51.9302 37.7708 51.5292 37.2229C51.127 36.6755 50.8201 36.241 50.6032 35.9253C50.3864 35.6097 50.1949 35.3194 50.0217 35.0588H49.9798V42.8066Z" fill="white"/>
<path d="M66.6964 27.7019V28.892H61.5323V34.3446H66.4166V35.5346H61.5323V41.5677H66.866V42.8024H60.1797V27.7002H66.699L66.6964 27.7019Z" fill="white"/>
<path d="M72.2769 27.7024C72.9907 27.6976 73.7035 27.7561 74.4069 27.8773C74.996 27.9724 75.562 28.1777 76.0752 28.4824C76.5363 28.7668 76.9119 29.1708 77.162 29.6514C77.4414 30.2384 77.5743 30.8843 77.5494 31.5339C77.5753 31.9861 77.5095 32.4389 77.3559 32.8651C77.2024 33.2912 76.9642 33.6819 76.6558 34.0136C76.0248 34.6311 75.2164 35.0356 74.3439 35.1704V35.215C74.8123 35.2847 75.248 35.4962 75.5925 35.821C75.9653 36.2486 76.2436 36.75 76.4092 37.2925L78.4745 42.8107H76.9461L75.1169 37.7691C74.9954 37.4264 74.8407 37.0963 74.6552 36.7837C74.508 36.5365 74.3148 36.3198 74.086 36.1454C73.8608 35.9822 73.6041 35.8679 73.3323 35.8096C73 35.7402 72.661 35.7079 72.3215 35.7134H71.4611V42.8107H70.084V27.7024H72.2769ZM71.4603 34.5837H72.3845C73.381 34.6612 74.3736 34.3898 75.1921 33.816C75.5015 33.5436 75.7448 33.2042 75.9032 32.8235C76.0617 32.4429 76.1313 32.0312 76.1067 31.6196C76.1499 31.2045 76.0772 30.7856 75.8968 30.4093C75.7164 30.033 75.4352 29.7141 75.0845 29.4879C74.1516 29.0361 73.1184 28.8311 72.0837 28.8924H71.4603V34.5837Z" fill="white"/>
</g>
</svg>
