<svg xmlns="http://www.w3.org/2000/svg" xmlns:xlink="http://www.w3.org/1999/xlink" width="85.374" height="39.808" viewBox="0 0 85.374 39.808">
  <defs>
    <clipPath id="clip-path">
      <rect id="長方形_518" data-name="長方形 518" width="85.374" height="39.808" fill="none"/>
    </clipPath>
  </defs>
  <g id="グループ_8374" data-name="グループ 8374" transform="translate(0 0)">
    <g id="グループ_8373" data-name="グループ 8373" transform="translate(0 -0.001)" clip-path="url(#clip-path)">
      <path id="パス_19494" data-name="パス 19494" d="M9.75,5.4q.5,1.558,1,3.242t.943,3.318h.052q.477-1.635,1-3.318T13.785,5.4L15.566,0h7.677V17.276H18.436V11.832q0-.966.013-2.054t.026-2.215q.013-1.125.026-2.228t.04-2.091h-.053c-.16.545-.344,1.156-.557,1.831s-.434,1.356-.664,2.043-.448,1.337-.652,1.955-.386,1.142-.543,1.572l-2.39,6.633H9.271L6.855,10.595q-.105-.3-.425-1.238t-.691-2.08Q5.368,6.139,5,5.012c-.248-.75-.434-1.342-.557-1.769H4.386q.026.989.04,2.091t.026,2.228q.013,1.125.027,2.215c.008.726.013,1.412.013,2.054v5.444H0V0H8.021L9.748,5.4Z" transform="translate(0 0)" fill="#fff"/>
      <rect id="長方形_516" data-name="長方形 516" width="5.035" height="17.276" transform="translate(28.223 0)" fill="#fff"/>
      <rect id="長方形_517" data-name="長方形 517" width="5.035" height="17.276" transform="translate(79.17 0)" fill="#fff"/>
      <path id="パス_19495" data-name="パス 19495" d="M83.015,0A27.444,27.444,0,0,1,86.2.175,9.162,9.162,0,0,1,88.815.83,4.274,4.274,0,0,1,90.583,2.19,3.783,3.783,0,0,1,91.236,4.5a3.866,3.866,0,0,1-.974,2.735,5.144,5.144,0,0,1-3,1.4v.048a3.5,3.5,0,0,1,1.6.706,3.788,3.788,0,0,1,1.011,1.522l2.511,6.362H87.368l-1.46-4.282a6.767,6.767,0,0,0-.487-1.151,2.4,2.4,0,0,0-.6-.73,2.1,2.1,0,0,0-.82-.384,5,5,0,0,0-1.141-.11H81.78v6.657H76.888V0h6.127Zm-1.23,7.376h.844A6.44,6.44,0,0,0,85.5,6.882a1.7,1.7,0,0,0,.947-1.635,1.538,1.538,0,0,0-.96-1.559,7.848,7.848,0,0,0-2.855-.4h-.844V7.376Z" transform="translate(-38.628 0)" fill="#fff"/>
      <path id="パス_19496" data-name="パス 19496" d="M133,17.276h-5.465l-1.392-3.688h-7.018l-1.473,3.688h-5.035L119.741,0h6.026ZM124.212,8.02c-.107-.331-.232-.717-.375-1.162l-.428-1.337q-.213-.669-.4-1.262c-.125-.4-.215-.708-.268-.939h-.052c-.053.231-.143.544-.268.939s-.263.816-.415,1.262-.305.891-.456,1.337-.289.833-.414,1.162l-.857,2.327h4.715l-.776-2.327Z" transform="translate(-56.578 0)" fill="#fff"/>
      <path id="パス_19497" data-name="パス 19497" d="M8.291,47.292a6.354,6.354,0,0,0-1.4-.5,6.243,6.243,0,0,0-1.305-.143,3.387,3.387,0,0,0-1.278.227,2.849,2.849,0,0,0-.96.622,2.739,2.739,0,0,0-.812,1.974,3.466,3.466,0,0,0,.112.9,2.5,2.5,0,0,0,.419.838,4.144,4.144,0,0,0,.862.838,9.294,9.294,0,0,0,1.464.874,8.327,8.327,0,0,1,2.855,2.106,4.313,4.313,0,0,1,.886,2.751A5.377,5.377,0,0,1,8.8,59.7a4.254,4.254,0,0,1-.96,1.507A4.39,4.39,0,0,1,6.3,62.2a5.547,5.547,0,0,1-2.042.36,9.446,9.446,0,0,1-1.7-.154,7.04,7.04,0,0,1-1.551-.468l.173-1.579a6.4,6.4,0,0,0,1.527.587,6.574,6.574,0,0,0,1.5.179,3.324,3.324,0,0,0,2.423-.849,3.079,3.079,0,0,0,.873-2.309A3.669,3.669,0,0,0,7.361,56.9a2.772,2.772,0,0,0-.5-.933,4.851,4.851,0,0,0-.935-.862,9.9,9.9,0,0,0-1.464-.849,10.83,10.83,0,0,1-1.735-1.041,4.856,4.856,0,0,1-1.07-1.076A3.656,3.656,0,0,1,1.1,50.962a5.178,5.178,0,0,1-.16-1.328,4.588,4.588,0,0,1,.32-1.712,4.041,4.041,0,0,1,.91-1.387,4.238,4.238,0,0,1,1.439-.922,5.239,5.239,0,0,1,1.932-.335,9.383,9.383,0,0,1,1.513.119,6.9,6.9,0,0,1,1.439.406l-.2,1.482Z" transform="translate(-0.471 -22.747)" fill="#fff"/>
      <path id="パス_19498" data-name="パス 19498" d="M27.144,45.279a13.639,13.639,0,0,1,2.276.185,5.291,5.291,0,0,1,1.943.717,3.954,3.954,0,0,1,1.366,1.46,4.947,4.947,0,0,1,.518,2.413,5.011,5.011,0,0,1-.456,2.239A4.111,4.111,0,0,1,31.5,53.829a5.656,5.656,0,0,1-1.98.891,10.356,10.356,0,0,1-2.5.285h-.763v7.548H24.683V45.277h2.461Zm-.91,8.364h.614a10.556,10.556,0,0,0,1.8-.148,4.268,4.268,0,0,0,1.513-.545,2.959,2.959,0,0,0,1.046-1.09,3.627,3.627,0,0,0,.4-1.806,3.528,3.528,0,0,0-.358-1.683,2.686,2.686,0,0,0-.984-1.052,4.181,4.181,0,0,0-1.465-.531,10.226,10.226,0,0,0-1.8-.148h-.763v7Z" transform="translate(-12.401 -22.747)" fill="#fff"/>
      <path id="パス_19499" data-name="パス 19499" d="M55.192,45.28v1.361H49.287v6.236h5.586v1.361H49.287v6.9h6.1v1.412H47.736V45.278h7.456Z" transform="translate(-23.982 -22.747)" fill="#fff"/>
      <path id="パス_19500" data-name="パス 19500" d="M81.849,62.558H80.023l-1.614-4.727H71.078l-1.666,4.727H67.692l6.193-17.276h1.932l6.035,17.276ZM77.985,56.47q-.9-2.7-1.469-4.429T75.6,49.232q-.346-1.076-.5-1.659c-.105-.388-.2-.712-.265-.977h-.053c-.07.265-.165.591-.279.977s-.292.94-.528,1.659-.553,1.655-.941,2.808-.9,2.631-1.535,4.429Z" transform="translate(-34.008 -22.749)" fill="#fff"/>
      <path id="パス_19501" data-name="パス 19501" d="M103.565,62.555h-1.574V45.279h1.574V53.2h.048q.346-.47.739-1.015c.263-.362.612-.834,1.046-1.412s.984-1.3,1.649-2.178,1.513-1.98,2.546-3.318h1.97l-6.447,8.117,6.914,9.159h-2.068q-1.747-2.4-2.842-3.922t-1.783-2.462c-.46-.626-.811-1.123-1.059-1.484s-.467-.693-.665-.991h-.048Z" transform="translate(-51.24 -22.747)" fill="#fff"/>
      <path id="パス_19502" data-name="パス 19502" d="M136.053,45.28v1.361h-5.906v6.236h5.586v1.361h-5.586v6.9h6.1v1.412H128.6V45.278h7.456Z" transform="translate(-64.607 -22.747)" fill="#fff"/>
      <path id="パス_19503" data-name="パス 19503" d="M153.872,45.282a13.8,13.8,0,0,1,2.436.2,5.434,5.434,0,0,1,1.908.692,3.433,3.433,0,0,1,1.243,1.337,4.6,4.6,0,0,1,.443,2.153A3.842,3.842,0,0,1,158.88,52.5a4.837,4.837,0,0,1-2.644,1.323v.051a2.65,2.65,0,0,1,1.428.693,4.61,4.61,0,0,1,.934,1.683l2.362,6.311h-1.748l-2.092-5.766a6.4,6.4,0,0,0-.528-1.127,2.575,2.575,0,0,0-.651-.73,2.286,2.286,0,0,0-.862-.384,5.239,5.239,0,0,0-1.156-.11h-.984v8.117h-1.575V45.282Zm-.934,7.87h1.057a4.928,4.928,0,0,0,3.211-.878,3.1,3.1,0,0,0,1.046-2.512,2.583,2.583,0,0,0-1.169-2.438,6.932,6.932,0,0,0-3.432-.681h-.713Z" transform="translate(-76.044 -22.749)" fill="#fff"/>
    </g>
  </g>
</svg>
