<svg width="90" height="52" viewBox="0 0 90 52" fill="none" xmlns="http://www.w3.org/2000/svg">
<mask id="mask0_262_184" style="mask-type:luminance" maskUnits="userSpaceOnUse" x="3" y="16" width="84" height="22">
<path d="M86.891 16H3.5V37.594H86.891V16Z" fill="white"/>
</mask>
<g mask="url(#mask0_262_184)">
<path d="M3.5 16.947C4.16591 16.7621 4.84585 16.632 5.533 16.558C7.29 16.501 7.278 16.543 7.686 18.278C8.69533 22.572 9.71433 26.8643 10.743 31.155C10.8131 31.3568 10.8963 31.5539 10.992 31.745C11.802 28.697 12.571 25.818 13.332 22.937C13.799 21.17 14.272 19.405 14.707 17.63C14.7253 17.4588 14.7779 17.2931 14.8615 17.1427C14.9452 16.9923 15.0583 16.8603 15.194 16.7544C15.3298 16.6486 15.4854 16.5712 15.6517 16.5268C15.818 16.4824 15.9916 16.4719 16.162 16.496C19.425 16.547 18.744 16.201 19.518 19.058C20.589 23.012 21.573 26.989 22.597 30.958C22.6409 31.1599 22.7618 31.3368 22.934 31.451C23.5193 29.087 24.1047 26.723 24.69 24.359C25.248 22.095 25.826 19.836 26.346 17.559C26.3558 17.402 26.3987 17.2488 26.4719 17.1095C26.5451 16.9703 26.647 16.8481 26.7709 16.7511C26.8947 16.6541 27.0377 16.5844 27.1905 16.5466C27.3432 16.5088 27.5022 16.5039 27.657 16.532C28.192 16.566 28.73 16.532 29.266 16.54C30.266 16.553 30.392 16.697 30.125 17.662C29.338 20.517 28.534 23.368 27.74 26.221C26.84 29.44 25.93 32.653 25.073 35.882C25.057 36.0602 25.0049 36.2333 24.9198 36.3908C24.8347 36.5482 24.7185 36.6866 24.5781 36.7976C24.4377 36.9086 24.2762 36.9898 24.1034 37.0363C23.9306 37.0828 23.7501 37.0936 23.573 37.068C20.563 36.985 21.067 37.486 20.285 34.55C19.2483 30.6507 18.2147 26.7523 17.184 22.855C17.106 22.561 17.008 22.272 16.841 21.724C16.077 24.565 15.383 27.148 14.687 29.731C14.121 31.831 13.534 33.923 12.997 36.031C12.9804 36.1868 12.9327 36.3376 12.8565 36.4745C12.7804 36.6114 12.6775 36.7316 12.554 36.8279C12.4304 36.9242 12.2888 36.9947 12.1374 37.0351C11.986 37.0754 11.8281 37.0849 11.673 37.063C8.459 36.988 8.995 37.528 8.179 34.444C6.68833 28.8073 5.19533 23.1713 3.7 17.536C3.64776 17.3959 3.58071 17.2618 3.5 17.136V16.947Z" fill="white"/>
<path d="M40.4371 37.594C39.8971 37.454 39.3561 37.317 38.8171 37.172C36.4233 36.5416 34.3211 35.103 32.8666 33.1001C31.4121 31.0971 30.6946 28.653 30.8358 26.1816C30.9771 23.7103 31.9683 21.3638 33.6415 19.5396C35.3147 17.7154 37.5671 16.5257 40.0171 16.172C40.1634 16.1314 40.3043 16.0737 40.4371 16L42.7101 16C44.3053 16.432 45.8582 17.007 47.3501 17.718C49.2185 18.8318 50.6961 20.4969 51.5797 22.4845C52.4634 24.4722 52.7098 26.6847 52.2851 28.818C51.8566 31.013 50.7556 33.0202 49.1348 34.5613C47.5141 36.1023 45.4539 37.1007 43.2401 37.418C43.0589 37.4601 42.8817 37.5173 42.7101 37.589L40.4371 37.594ZM41.5561 34.057C42.9879 34.065 44.3902 33.6495 45.5866 32.8627C46.7829 32.0759 47.7199 30.9529 48.2798 29.635C48.8396 28.3171 48.9973 26.863 48.733 25.4557C48.4686 24.0485 47.7941 22.7507 46.7942 21.7258C45.7943 20.7008 44.5137 19.9944 43.1134 19.6953C41.7131 19.3962 40.2556 19.5178 38.9242 20.0448C37.5928 20.5719 36.447 21.4808 35.6308 22.6573C34.8146 23.8338 34.3645 25.2254 34.3371 26.657C34.3196 27.6184 34.493 28.5737 34.8474 29.4676C35.2017 30.3614 35.7299 31.1761 36.4014 31.8644C37.0728 32.5527 37.8742 33.1009 38.759 33.4772C39.6438 33.8536 40.5945 34.0507 41.5561 34.057Z" fill="white"/>
<path d="M85.0288 37.0829C84.6818 37.0829 84.3348 37.0829 83.9878 37.0829C83.7187 37.1032 83.4513 37.0261 83.2343 36.8656C83.0174 36.7052 82.8653 36.4721 82.8058 36.2089C82.3958 34.9849 81.9198 33.7839 81.5128 32.5589C81.4519 32.2823 81.2887 32.0389 81.056 31.8774C80.8234 31.7159 80.5383 31.6482 80.2578 31.6879C78.2085 31.7232 76.1585 31.7232 74.1078 31.6879C73.8137 31.6382 73.5118 31.7051 73.2663 31.8745C73.0207 32.0438 72.8509 32.3023 72.7928 32.5949C72.4208 33.7949 71.9198 34.9569 71.5258 36.1519C71.4643 36.4469 71.2931 36.7077 71.0468 36.8814C70.8005 37.0551 70.4974 37.1289 70.1988 37.0879C69.5698 37.0609 68.9378 37.0719 68.3068 37.0879C67.5378 37.1029 67.3788 36.7879 67.6568 36.0879C68.8148 33.1609 69.9468 30.2229 71.0848 27.2879C72.3248 24.0879 73.5848 20.8939 74.7848 17.6799C74.8757 17.3143 75.0981 16.9951 75.4095 16.7831C75.7209 16.5712 76.0994 16.4814 76.4728 16.5309C79.6248 16.6149 79.0108 16.0889 80.1898 19.1099C82.3198 24.5649 84.4148 30.0339 86.5278 35.4959C87.1338 37.0629 87.1188 37.0889 85.4058 37.0899C85.2798 37.0899 85.1538 37.0899 85.0268 37.0899M80.1268 28.7079L77.3058 20.5969L77.0738 20.6099L74.2218 28.7099L80.1268 28.7079Z" fill="white"/>
<path d="M62.7819 28.3108C62.7819 30.8035 62.7819 33.2961 62.7819 35.7888C62.7819 36.9178 62.6819 37.0108 61.5239 37.0188C61.1139 37.0188 60.7035 37.0188 60.2929 37.0188C59.1049 37.0128 59.0289 36.9378 59.0279 35.7068C59.0279 30.7848 59.0059 25.8618 59.0449 20.9398C59.0519 20.0158 58.7519 19.7248 57.8449 19.7658C56.4589 19.8298 55.0679 19.7538 53.6809 19.7938C52.8859 19.8168 52.5239 19.5638 52.5459 18.7158C52.6069 16.3708 52.1849 16.5398 54.7219 16.5398C59.1399 16.5398 63.5575 16.5398 67.9749 16.5398C69.1869 16.5398 69.2429 16.6038 69.2489 17.8398C69.2569 19.7618 69.2569 19.7618 67.3489 19.7618C66.1489 19.7618 64.9489 19.7948 63.7489 19.7498C63.0019 19.7218 62.7549 19.9968 62.7649 20.7368C62.7979 23.2608 62.7779 25.7848 62.7779 28.3098" fill="white"/>
</g>
</svg>
