<svg id="グループ_8356" data-name="グループ 8356" xmlns="http://www.w3.org/2000/svg" xmlns:xlink="http://www.w3.org/1999/xlink" width="83.391" height="21.594" viewBox="0 0 83.391 21.594">
  <defs>
    <clipPath id="clip-path">
      <rect id="長方形_504" data-name="長方形 504" width="83.391" height="21.594" transform="translate(0 0)" fill="none"/>
    </clipPath>
  </defs>
  <g id="グループ_8352" data-name="グループ 8352" transform="translate(0 0)" clip-path="url(#clip-path)">
    <path id="パス_19451" data-name="パス 19451" d="M0,1.946a12.662,12.662,0,0,1,2.033-.389C3.79,1.5,3.778,1.542,4.186,3.277Q5.7,9.718,7.243,16.154a4.935,4.935,0,0,0,.249.59c.81-3.048,1.579-5.927,2.34-8.808.467-1.767.94-3.532,1.375-5.307a1.283,1.283,0,0,1,1.455-1.134c3.263.051,2.582-.295,3.356,2.562,1.071,3.954,2.055,7.931,3.079,11.9a.794.794,0,0,0,.337.493q.878-3.546,1.756-7.092c.558-2.264,1.136-4.523,1.656-6.8a1.114,1.114,0,0,1,1.311-1.027c.535.034,1.073,0,1.609.008,1,.013,1.126.157.859,1.122-.787,2.855-1.591,5.706-2.385,8.559-.9,3.219-1.81,6.432-2.667,9.661a1.317,1.317,0,0,1-1.5,1.186c-3.01-.083-2.506.418-3.288-2.518Q15.23,13.7,13.684,7.854c-.078-.294-.176-.583-.343-1.131-.764,2.841-1.458,5.424-2.154,8.007-.566,2.1-1.153,4.192-1.69,6.3a1.167,1.167,0,0,1-1.324,1.032c-3.214-.075-2.678.465-3.494-2.619Q2.443,10.988.2,2.535a2.1,2.1,0,0,0-.2-.4Z" transform="translate(0 -0.999)" fill="#fff"/>
    <path id="パス_19452" data-name="パス 19452" d="M92.016,21.594c-.54-.14-1.081-.277-1.62-.422a10.732,10.732,0,0,1,1.2-21A1.924,1.924,0,0,0,92.016,0h2.273a27.477,27.477,0,0,1,4.64,1.718,10.529,10.529,0,0,1,4.935,11.1,10.773,10.773,0,0,1-9.045,8.6,3.338,3.338,0,0,0-.53.171Zm1.119-3.537a7.261,7.261,0,1,0-7.219-7.4,7.268,7.268,0,0,0,7.219,7.4" transform="translate(-55.079 0)" fill="#fff"/>
    <path id="パス_19453" data-name="パス 19453" d="M210.685,22.142c-.347,0-.694,0-1.041,0a1.125,1.125,0,0,1-1.182-.874c-.41-1.224-.886-2.425-1.293-3.65a1.124,1.124,0,0,0-1.255-.871q-3.074.053-6.15,0a1.146,1.146,0,0,0-1.315.907c-.372,1.2-.873,2.362-1.267,3.557a1.19,1.19,0,0,1-1.327.936c-.629-.027-1.261-.016-1.892,0-.769.015-.928-.3-.65-1,1.158-2.927,2.29-5.865,3.428-8.8,1.24-3.2,2.5-6.394,3.7-9.608a1.532,1.532,0,0,1,1.688-1.149c3.152.084,2.538-.442,3.717,2.579,2.13,5.455,4.225,10.924,6.338,16.386.606,1.567.591,1.593-1.122,1.594-.126,0-.252,0-.379,0m-4.9-8.382-2.821-8.111-.232.013-2.852,8.1Z" transform="translate(-129.157 -1.059)" fill="#fff"/>
    <path id="パス_19454" data-name="パス 19454" d="M158.218,13.394q0,3.739,0,7.478c0,1.129-.1,1.222-1.258,1.23q-.615,0-1.231,0c-1.188-.006-1.264-.081-1.265-1.312,0-4.922-.022-9.845.017-14.767.007-.924-.293-1.215-1.2-1.174-1.386.064-2.777-.012-4.164.028-.795.023-1.157-.23-1.135-1.078.061-2.345-.361-2.176,2.176-2.176q6.627,0,13.253,0c1.212,0,1.268.064,1.274,1.3.008,1.922.008,1.922-1.9,1.922-1.2,0-2.4.033-3.6-.012-.747-.028-.994.247-.984.987.033,2.524.013,5.048.013,7.573" transform="translate(-98.937 -1.083)" fill="#fff"/>
  </g>
</svg>
