<svg id="グループ_8355" data-name="グループ 8355" xmlns="http://www.w3.org/2000/svg" xmlns:xlink="http://www.w3.org/1999/xlink" width="140.921" height="33.848" viewBox="0 0 140.921 33.848">
  <defs>
    <clipPath id="clip-path">
      <rect id="長方形_503" data-name="長方形 503" width="140.921" height="33.848" fill="none"/>
    </clipPath>
  </defs>
  <g id="グループ_8350" data-name="グループ 8350" clip-path="url(#clip-path)">
    <path id="パス_19438" data-name="パス 19438" d="M0,27.424c0-3.443,2.217-5.755,5.566-5.755a4.087,4.087,0,0,1,3.325,1.484V16.127a.218.218,0,0,1,.2-.235h2.229a.223.223,0,0,1,.236.209.179.179,0,0,1,0,.027v16.58a.212.212,0,0,1-.183.236.221.221,0,0,1-.053,0H9.74a.3.3,0,0,1-.282-.211l-.352-1.3A4.139,4.139,0,0,1,5.566,33.2C2.217,33.2,0,30.844,0,27.424m5.731-3.114a3.114,3.114,0,1,0,.094,0H5.731" transform="translate(0 -4.694)" fill="#fff"/>
    <path id="パス_19439" data-name="パス 19439" d="M31.022,25.822l.4-1.321c.07-.189.165-.236.282-.236h1.533a.223.223,0,0,1,.236.209.179.179,0,0,1,0,.027L33.5,35.02a5.576,5.576,0,0,1-5.9,5.919,9.073,9.073,0,0,1-4.481-1.18.243.243,0,0,1-.111-.325l.016-.027.967-1.957a.177.177,0,0,1,.165-.118.335.335,0,0,1,.141.047,6.936,6.936,0,0,0,3.16.872,3.03,3.03,0,0,0,3.349-3.3v-.9a4.125,4.125,0,0,1-3.4,1.533,5.4,5.4,0,0,1-5.59-5.778c0-3.443,2.241-5.8,5.59-5.8a4.134,4.134,0,0,1,3.61,1.816M27.576,32.9a3.114,3.114,0,1,0,.162-6.227c-.054,0-.108,0-.162,0a3.114,3.114,0,0,0,0,6.227" transform="translate(-6.446 -7.09)" fill="#fff"/>
    <path id="パス_19440" data-name="パス 19440" d="M59.362,31.41a1.74,1.74,0,0,0,.943-.4.3.3,0,0,1,.141-.024.21.21,0,0,1,.189.118l.731,1.887c.07.165.047.306-.07.377a3.994,3.994,0,0,1-2.406.755c-1.981,0-3.137-1.416-3.113-3.821V25.325H54.291a.223.223,0,0,1-.236-.209.17.17,0,0,1,0-.027V23.061a.217.217,0,0,1,.223-.212h1.5l.023-3.443c0-.141.07-.236.211-.236H58.2a.223.223,0,0,1,.235.209.17.17,0,0,1,0,.027v3.443H60.7a.218.218,0,0,1,.235.2v2.044a.223.223,0,0,1-.209.235H58.44v3.608c0,1.91.189,2.477.92,2.477" transform="translate(-15.967 -5.663)" fill="#fff"/>
    <path id="パス_19441" data-name="パス 19441" d="M77.484,24.512c.047-.141.118-.236.259-.236h1.793a.223.223,0,0,1,.235.209.171.171,0,0,1,0,.027V35.123a.236.236,0,0,1-.235.236H77.719c-.141,0-.211-.094-.259-.236l-.33-1.25a4.121,4.121,0,0,1-3.538,1.745c-3.326.024-5.566-2.358-5.566-5.778,0-3.443,2.241-5.755,5.566-5.755a4.145,4.145,0,0,1,3.538,1.7Zm-3.726,8.441a3.1,3.1,0,0,0,0-6.2,2.9,2.9,0,0,0-3.068,2.728,2.945,2.945,0,0,0,0,.361,2.948,2.948,0,0,0,2.773,3.112,2.907,2.907,0,0,0,.293,0" transform="translate(-20.094 -7.114)" fill="#fff"/>
    <path id="パス_19442" data-name="パス 19442" d="M100.449,21.892c.259,0,.282.118.118.306l-4.1,4.906,4.862,5.542c.189.211.141.306-.141.306H98.255a.337.337,0,0,1-.306-.118l-4.2-4.862v4.767a.211.211,0,0,1-.211.211H91.275a.211.211,0,0,1-.211-.211v-16.6a.211.211,0,0,1,.211-.211h2.241a.218.218,0,0,1,.235.2V26.35L97.2,22.034a.271.271,0,0,1,.26-.141Z" transform="translate(-26.9 -4.704)" fill="#fff"/>
    <path id="パス_19443" data-name="パス 19443" d="M118.1,24.512c.047-.141.118-.236.259-.236h1.793a.223.223,0,0,1,.235.209.171.171,0,0,1,0,.027V35.123a.236.236,0,0,1-.235.236h-1.816c-.141,0-.211-.094-.259-.236l-.33-1.25a4.121,4.121,0,0,1-3.538,1.745c-3.326.024-5.566-2.358-5.566-5.778,0-3.443,2.241-5.755,5.566-5.755a4.145,4.145,0,0,1,3.538,1.7Zm-3.726,8.441a3.1,3.1,0,1,0,0-6.2,2.9,2.9,0,0,0-3.068,2.728,2.945,2.945,0,0,0,0,.361,2.948,2.948,0,0,0,2.773,3.112,2.907,2.907,0,0,0,.293,0" transform="translate(-32.092 -7.114)" fill="#fff"/>
    <path id="パス_19444" data-name="パス 19444" d="M131.677,24.5a.223.223,0,0,1,.209-.236h1.773a.264.264,0,0,1,.282.236l.259,1.274a3.9,3.9,0,0,1,3.491-1.793c2.5,0,4.222,1.816,4.222,4.953v6.155a.223.223,0,0,1-.21.236H139.46a.223.223,0,0,1-.236-.21.158.158,0,0,1,0-.026v-5.66c0-1.864-.92-2.736-2.217-2.736-1.816,0-2.57,1.675-2.642,3.255V35.1a.237.237,0,0,1-.236.236h-2.217a.223.223,0,0,1-.236-.209.176.176,0,0,1,0-.027Z" transform="translate(-38.897 -7.084)" fill="#fff"/>
    <path id="パス_19445" data-name="パス 19445" d="M157.286,23.983a5.484,5.484,0,0,1,5.778,5.173,5.406,5.406,0,0,1,0,.6,5.766,5.766,0,1,1-11.532,0,5.465,5.465,0,0,1,5.754-5.778m0,8.915a3.114,3.114,0,1,0-3.066-3.066,3.114,3.114,0,0,0,3.066,3.066" transform="translate(-44.762 -7.082)" fill="#fff"/>
    <path id="パス_19446" data-name="パス 19446" d="M193.743,15.81c.092-.211.178-.423.261-.634,0-.07-.008-.141-.013-.211-2.508,5.182-7.957,9.194-13.136,11.267-.372.152-.76.3-1.153.444a11.359,11.359,0,0,0,2.941.394,23.037,23.037,0,0,0,11.1-11.261" transform="translate(-53.083 -4.42)" fill="#fff"/>
    <path id="パス_19447" data-name="パス 19447" d="M191.558,14.527c.228-.382.437-.775.63-1.175-.007-.042-.013-.085-.021-.127a16.42,16.42,0,0,1-3.3,3.915,32.906,32.906,0,0,1-14.835,7.025,11.411,11.411,0,0,0,1.87,1.184c6.31-1.683,12.249-5.182,15.661-10.823" transform="translate(-51.407 -3.907)" fill="#fff"/>
    <path id="パス_19448" data-name="パス 19448" d="M170.486,21.088a11.377,11.377,0,0,0,1.12,1.43,41.46,41.46,0,0,0,4.342-.922c5.444-1.48,11.936-4.484,15-9.548l-.029-.111-.022.029c-.177.211-.428.541-.619.733-4.584,4.889-13.044,7.328-19.794,8.389" transform="translate(-50.361 -3.526)" fill="#fff"/>
    <path id="パス_19449" data-name="パス 19449" d="M188.258,27.525a11.353,11.353,0,0,0,8.21-9.6,23.264,23.264,0,0,1-8.21,9.6" transform="translate(-55.611 -5.294)" fill="#fff"/>
    <path id="パス_19450" data-name="パス 19450" d="M171.76,15.722c5.812-.962,13.176-2.889,17.466-7.116.1-.109.364-.39.469-.5.088-.1.173-.205.258-.309a11.344,11.344,0,1,0-21.068,8.319c.961-.114,1.919-.242,2.875-.394" transform="translate(-49.577 0)" fill="#fff"/>
  </g>
</svg>
