<svg width="147" height="52" viewBox="0 0 147 52" fill="none" xmlns="http://www.w3.org/2000/svg">
<mask id="mask0_262_181" style="mask-type:luminance" maskUnits="userSpaceOnUse" x="2" y="9" width="142" height="34">
<path d="M143.421 9H2.5V42.848H143.421V9Z" fill="white"/>
</mask>
<g mask="url(#mask0_262_181)">
<path d="M2.5 31.7297C2.5 28.2867 4.717 25.9747 8.066 25.9747C8.69722 25.9482 9.32597 26.0684 9.90289 26.3259C10.4798 26.5834 10.9892 26.9711 11.391 27.4587V20.4327C11.3887 20.4041 11.392 20.3754 11.4008 20.3481C11.4096 20.3208 11.4237 20.2955 11.4423 20.2737C11.4608 20.2519 11.4835 20.2339 11.5091 20.2209C11.5346 20.2078 11.5624 20.1999 11.591 20.1977H13.82C13.879 20.1941 13.937 20.2141 13.9813 20.2533C14.0255 20.2925 14.0524 20.3477 14.056 20.4067C14.0567 20.4157 14.0567 20.4247 14.056 20.4337V37.0137C14.0628 37.0692 14.0474 37.1252 14.0131 37.1694C13.9788 37.2136 13.9285 37.2424 13.873 37.2497C13.8554 37.2518 13.8376 37.2518 13.82 37.2497H12.24C12.1768 37.2487 12.1154 37.2278 12.0648 37.1899C12.0141 37.152 11.9768 37.0991 11.958 37.0387L11.606 35.7387C11.2104 36.3053 10.6792 36.7639 10.0608 37.0725C9.44246 37.3812 8.75667 37.5301 8.066 37.5057C4.717 37.5057 2.5 35.1497 2.5 31.7297ZM8.231 28.6157C7.40928 28.6281 6.62578 28.9648 6.05128 29.5525C5.47679 30.1401 5.15789 30.931 5.16409 31.7528C5.17029 32.5746 5.5011 33.3606 6.08439 33.9395C6.66769 34.5185 7.45619 34.8433 8.278 34.8433C9.09981 34.8433 9.88831 34.5185 10.4716 33.9395C11.0549 33.3606 11.3857 32.5746 11.3919 31.7528C11.3981 30.931 11.0792 30.1401 10.5047 29.5525C9.93022 28.9648 9.14672 28.6281 8.325 28.6157H8.231Z" fill="white"/>
<path d="M27.0769 27.7317L27.4769 26.4107C27.5469 26.2217 27.6419 26.1747 27.7589 26.1747H29.2919C29.3509 26.1712 29.4089 26.1912 29.4532 26.2304C29.4975 26.2696 29.5243 26.3247 29.5279 26.3837C29.5286 26.3927 29.5286 26.4017 29.5279 26.4107L29.5549 36.9297C29.605 37.7184 29.4868 38.5087 29.2083 39.2482C28.9297 39.9877 28.4972 40.6596 27.9393 41.2193C27.3814 41.779 26.7109 42.2137 25.9723 42.4946C25.2337 42.7755 24.4438 42.8962 23.6549 42.8487C22.0843 42.8499 20.5403 42.4433 19.1739 41.6687C19.1162 41.6403 19.072 41.5901 19.0512 41.5292C19.0304 41.4683 19.0346 41.4016 19.0629 41.3437L19.0789 41.3167L20.0459 39.3597C20.058 39.3255 20.0803 39.2959 20.1099 39.2747C20.1394 39.2536 20.1747 39.2421 20.2109 39.2417C20.2609 39.2466 20.3091 39.2627 20.3519 39.2887C21.3205 39.8277 22.4041 40.1267 23.5119 40.1607C23.9595 40.2102 24.4125 40.1592 24.838 40.0116C25.2634 39.864 25.6506 39.6234 25.9714 39.3073C26.2921 38.9912 26.5384 38.6076 26.6923 38.1844C26.8462 37.7612 26.9038 37.309 26.8609 36.8607V35.9607C26.4544 36.4653 25.9348 36.8671 25.3441 37.1334C24.7534 37.3998 24.1082 37.5232 23.4609 37.4937C22.703 37.5223 21.9476 37.3909 21.2438 37.1081C20.5401 36.8253 19.9038 36.3974 19.3764 35.8523C18.8491 35.3072 18.4424 34.6571 18.183 33.9444C17.9237 33.2317 17.8173 32.4723 17.8709 31.7157C17.8709 28.2727 20.1119 25.9157 23.4609 25.9157C24.1678 25.8842 24.8709 26.0346 25.503 26.3526C26.135 26.6705 26.6749 27.1454 27.0709 27.7317M23.6309 34.8097C24.0398 34.8204 24.4468 34.7504 24.8286 34.6037C25.2104 34.4571 25.5596 34.2367 25.8562 33.9551C26.1529 33.6735 26.3911 33.3362 26.5574 32.9625C26.7237 32.5889 26.8148 32.1861 26.8254 31.7772C26.8361 31.3684 26.7661 30.9614 26.6194 30.5796C26.4728 30.1978 26.2524 29.8486 25.9708 29.5519C25.6892 29.2553 25.3519 29.017 24.9783 28.8507C24.6046 28.6844 24.2018 28.5934 23.7929 28.5827C23.7389 28.5827 23.6849 28.5827 23.6309 28.5827C22.8149 28.5974 22.0371 28.9318 21.4652 29.5141C20.8932 30.0964 20.5727 30.88 20.5727 31.6962C20.5727 32.5124 20.8932 33.296 21.4652 33.8783C22.0371 34.4606 22.8149 34.7951 23.6309 34.8097Z" fill="white"/>
<path d="M45.8954 34.7467C46.2428 34.711 46.5713 34.5716 46.8384 34.3467C46.8828 34.3274 46.9312 34.3192 46.9794 34.3227C47.0188 34.3227 47.0574 34.3337 47.0909 34.3546C47.1243 34.3754 47.1512 34.4053 47.1684 34.4407L47.8994 36.3277C47.9694 36.4927 47.9464 36.6337 47.8294 36.7047C47.13 37.2096 46.2859 37.4745 45.4234 37.4597C43.4424 37.4597 42.2864 36.0437 42.3104 33.6387V28.6617H40.8244C40.7654 28.6653 40.7074 28.6452 40.6632 28.606C40.6189 28.5669 40.592 28.5117 40.5884 28.4527C40.5877 28.4437 40.5877 28.4347 40.5884 28.4257V26.3977C40.5891 26.3691 40.5954 26.3409 40.6069 26.3148C40.6185 26.2886 40.6351 26.265 40.6559 26.2453C40.6766 26.2256 40.701 26.2102 40.7277 26.2C40.7544 26.1898 40.7828 26.1849 40.8114 26.1857H42.3114L42.3344 22.7427C42.3344 22.6017 42.4044 22.5067 42.5454 22.5067H44.7334C44.7923 22.5034 44.85 22.5236 44.894 22.5627C44.9381 22.6019 44.9648 22.6569 44.9684 22.7157C44.9691 22.7247 44.9691 22.7337 44.9684 22.7427V26.1857H47.2334C47.262 26.1834 47.2907 26.1867 47.318 26.1955C47.3453 26.2043 47.3706 26.2184 47.3924 26.237C47.4142 26.2555 47.4322 26.2782 47.4452 26.3038C47.4583 26.3293 47.4662 26.3571 47.4684 26.3857V28.4297C47.4717 28.4885 47.4516 28.5463 47.4124 28.5903C47.3732 28.6343 47.3182 28.6611 47.2594 28.6647H44.9734V32.2727C44.9734 34.1827 45.1624 34.7497 45.8934 34.7497" fill="white"/>
<path d="M59.8896 26.3981C59.9366 26.2571 60.0076 26.1621 60.1486 26.1621H61.9416C62.0005 26.1588 62.0582 26.1789 62.1023 26.2181C62.1463 26.2572 62.173 26.3122 62.1766 26.3711C62.1774 26.38 62.1774 26.3891 62.1766 26.3981V37.0091C62.1766 37.0715 62.1519 37.1313 62.1079 37.1756C62.0638 37.2198 62.0041 37.2448 61.9416 37.2451H60.1246C59.9836 37.2451 59.9136 37.1511 59.8656 37.0091L59.5356 35.7591C59.1389 36.3226 58.6071 36.7776 57.989 37.0824C57.3709 37.3873 56.6862 37.5322 55.9976 37.5041C52.6716 37.5281 50.4316 35.1461 50.4316 31.7261C50.4316 28.2831 52.6726 25.9711 55.9976 25.9711C56.6819 25.94 57.3632 26.079 57.9806 26.3757C58.598 26.6724 59.1323 27.1174 59.5356 27.6711L59.8896 26.3981ZM56.1636 34.8391C56.9858 34.8391 57.7743 34.5125 58.3557 33.9311C58.937 33.3497 59.2636 32.5612 59.2636 31.7391C59.2636 30.9169 58.937 30.1284 58.3557 29.547C57.7743 28.9657 56.9858 28.6391 56.1636 28.6391C55.783 28.6163 55.4016 28.6689 55.0413 28.7938C54.681 28.9186 54.3488 29.1133 54.0638 29.3667C53.7789 29.6201 53.5467 29.9272 53.3805 30.2705C53.2144 30.6137 53.1176 30.9864 53.0956 31.3671C53.0883 31.4873 53.0883 31.6078 53.0956 31.7281C53.0509 32.5084 53.3178 33.2746 53.8378 33.8582C54.3578 34.4418 55.0883 34.7949 55.8686 34.8401C55.9662 34.845 56.064 34.845 56.1616 34.8401" fill="white"/>
<path d="M76.0491 26.1879C76.3081 26.1879 76.3311 26.3059 76.1671 26.4939L72.0671 31.3999L76.9291 36.9419C77.1181 37.1529 77.0701 37.2479 76.7881 37.2479H73.8551C73.7982 37.2559 73.7403 37.2492 73.6867 37.2286C73.6332 37.2079 73.5858 37.174 73.5491 37.1299L69.3491 32.2679V37.0349C69.3491 37.0908 69.3268 37.1445 69.2873 37.1841C69.2477 37.2236 69.194 37.2459 69.1381 37.2459H66.8751C66.8191 37.2459 66.7654 37.2236 66.7259 37.1841C66.6863 37.1445 66.6641 37.0908 66.6641 37.0349V20.4349C66.6641 20.3789 66.6863 20.3252 66.7259 20.2857C66.7654 20.2461 66.8191 20.2239 66.8751 20.2239H69.1161C69.1446 20.2215 69.1734 20.2249 69.2007 20.2337C69.2279 20.2425 69.2532 20.2566 69.275 20.2751C69.2969 20.2937 69.3148 20.3164 69.3279 20.3419C69.3409 20.3674 69.3488 20.3953 69.3511 20.4239V30.6459L72.8001 26.3299C72.8251 26.2837 72.863 26.2458 72.9091 26.2208C72.9553 26.1957 73.0077 26.1846 73.0601 26.1889L76.0491 26.1879Z" fill="white"/>
<path d="M88.5078 26.3981C88.5548 26.2571 88.6258 26.1621 88.7668 26.1621H90.5598C90.6186 26.1588 90.6764 26.1789 90.7204 26.2181C90.7644 26.2572 90.7912 26.3122 90.7948 26.3711C90.7955 26.38 90.7955 26.3891 90.7948 26.3981V37.0091C90.7948 37.0715 90.7701 37.1313 90.726 37.1756C90.682 37.2198 90.6222 37.2448 90.5598 37.2451H88.7438C88.6028 37.2451 88.5328 37.1511 88.4848 37.0091L88.1548 35.7591C87.758 36.3226 87.2262 36.7776 86.6082 37.0824C85.9901 37.3873 85.3054 37.5322 84.6168 37.5041C81.2908 37.5281 79.0508 35.1461 79.0508 31.7261C79.0508 28.2831 81.2918 25.9711 84.6168 25.9711C85.3011 25.94 85.9824 26.079 86.5998 26.3757C87.2172 26.6724 87.7514 27.1174 88.1548 27.6711L88.5078 26.3981ZM84.7818 34.8391C85.604 34.8391 86.3925 34.5125 86.9738 33.9311C87.5552 33.3497 87.8818 32.5612 87.8818 31.7391C87.8818 30.9169 87.5552 30.1284 86.9738 29.547C86.3925 28.9657 85.604 28.6391 84.7818 28.6391C84.4011 28.6163 84.0197 28.6689 83.6594 28.7938C83.2991 28.9186 82.9669 29.1133 82.682 29.3667C82.397 29.6201 82.1648 29.9272 81.9987 30.2705C81.8325 30.6137 81.7357 30.9864 81.7138 31.3671C81.7064 31.4873 81.7064 31.6078 81.7138 31.7281C81.669 32.5084 81.936 33.2746 82.456 33.8582C82.976 34.4418 83.7064 34.7949 84.4868 34.8401C84.5844 34.845 84.6822 34.845 84.7798 34.8401" fill="white"/>
<path d="M95.2808 26.416C95.2773 26.357 95.2973 26.299 95.3365 26.2548C95.3757 26.2105 95.4308 26.1836 95.4898 26.18H97.2628C97.3313 26.175 97.399 26.1968 97.4517 26.2409C97.5043 26.2849 97.5377 26.3477 97.5448 26.416L97.8038 27.69C98.1753 27.1093 98.6941 26.6374 99.3074 26.3224C99.9206 26.0075 100.606 25.8607 101.295 25.897C103.795 25.897 105.517 27.713 105.517 30.85V37.005C105.519 37.0343 105.515 37.0637 105.505 37.0914C105.495 37.1191 105.48 37.1447 105.461 37.1666C105.441 37.1885 105.418 37.2064 105.391 37.2192C105.365 37.2319 105.336 37.2394 105.307 37.241H103.064C103.035 37.2428 103.005 37.2387 102.977 37.2291C102.95 37.2195 102.924 37.2045 102.902 37.185C102.88 37.1655 102.862 37.1419 102.85 37.1154C102.837 37.089 102.829 37.0603 102.828 37.031C102.827 37.0224 102.827 37.0137 102.828 37.005V31.345C102.828 29.481 101.908 28.609 100.611 28.609C98.7948 28.609 98.0408 30.284 97.9688 31.864V37.016C97.9686 37.0785 97.9436 37.1384 97.8994 37.1826C97.8552 37.2268 97.7953 37.2518 97.7328 37.252H95.5158C95.4568 37.2556 95.3988 37.2356 95.3546 37.1964C95.3103 37.1572 95.2834 37.102 95.2798 37.043C95.2791 37.034 95.2791 37.025 95.2798 37.016L95.2808 26.416Z" fill="white"/>
<path d="M115.023 25.9009C116.475 25.8207 117.9 26.3206 118.984 27.2907C120.067 28.2609 120.721 29.6217 120.801 31.0739C120.812 31.2737 120.812 31.474 120.801 31.6739C120.801 33.2031 120.194 34.6697 119.112 35.751C118.031 36.8324 116.564 37.4398 115.035 37.4398C113.506 37.4398 112.039 36.8324 110.958 35.751C109.877 34.6697 109.269 33.2031 109.269 31.6739C109.224 30.9053 109.342 30.1359 109.614 29.416C109.887 28.6961 110.309 28.0419 110.852 27.4964C111.396 26.9509 112.048 26.5263 112.767 26.2505C113.486 25.9747 114.254 25.8538 115.023 25.8959M115.023 34.8109C115.643 34.8203 116.252 34.6446 116.771 34.3061C117.29 33.9676 117.697 33.4818 117.939 32.9109C118.18 32.3399 118.246 31.7099 118.127 31.1014C118.009 30.4929 117.711 29.9337 117.273 29.4953C116.834 29.0569 116.275 28.7594 115.667 28.6407C115.058 28.5221 114.428 28.5878 113.857 28.8295C113.286 29.0711 112.8 29.4776 112.462 29.997C112.123 30.5164 111.948 31.125 111.957 31.7448C111.97 32.5541 112.297 33.3268 112.869 33.8991C113.441 34.4715 114.214 34.7985 115.023 34.8109Z" fill="white"/>
<path d="M143.16 20.3899C143.252 20.1789 143.338 19.9669 143.421 19.7559C143.421 19.6859 143.413 19.6149 143.408 19.5449C140.9 24.7269 135.451 28.7389 130.272 30.8119C129.9 30.9639 129.512 31.1119 129.119 31.2559C130.078 31.5153 131.067 31.6477 132.06 31.6499C136.973 29.3234 140.905 25.3346 143.16 20.3889" fill="white"/>
<path d="M142.651 19.6199C142.879 19.2379 143.088 18.8449 143.281 18.4449C143.274 18.4029 143.268 18.3599 143.26 18.3179C142.371 19.7874 141.258 21.1085 139.96 22.2329C135.688 25.7901 130.584 28.2069 125.125 29.2579C125.708 29.7122 126.335 30.1087 126.995 30.4419C133.305 28.7589 139.244 25.2599 142.656 19.6189" fill="white"/>
<path d="M122.625 26.5616C122.96 27.0674 123.334 27.5456 123.745 27.9916C125.208 27.7621 126.657 27.4543 128.087 27.0696C133.531 25.5896 140.023 22.5856 143.087 17.5216L143.058 17.4106L143.036 17.4396C142.859 17.6506 142.608 17.9806 142.417 18.1726C137.833 23.0616 129.373 25.5006 122.623 26.5616" fill="white"/>
<path d="M135.146 31.2309C137.312 30.6238 139.248 29.3873 140.71 27.6781C142.172 25.969 143.093 23.8643 143.356 21.6309C141.558 25.5268 138.716 28.8493 135.146 31.2309Z" fill="white"/>
<path d="M124.683 24.7219C130.495 23.7599 137.859 21.8329 142.149 17.6059C142.249 17.4969 142.513 17.2159 142.618 17.1059C142.706 17.0059 142.791 16.9009 142.876 16.7969C142.392 15.3305 141.613 13.9784 140.588 12.8234C139.563 11.6685 138.313 10.735 136.914 10.0801C135.515 9.4253 133.998 9.06292 132.454 9.01519C130.911 8.96745 129.374 9.23538 127.937 9.80254C126.501 10.3697 125.196 11.2242 124.101 12.3136C123.007 13.403 122.146 14.7044 121.572 16.1381C120.998 17.5718 120.723 19.1075 120.764 20.6513C120.804 22.195 121.159 23.7142 121.808 25.1159C122.769 25.0019 123.727 24.8739 124.683 24.7219Z" fill="white"/>
</g>
</svg>
