<svg id="グループ_8344" data-name="グループ 8344" xmlns="http://www.w3.org/2000/svg" xmlns:xlink="http://www.w3.org/1999/xlink" width="179.556" height="31.726" viewBox="0 0 179.556 31.726">
  <defs>
    <clipPath id="clip-path">
      <rect id="長方形_474" data-name="長方形 474" width="179.556" height="31.725" fill="none"/>
    </clipPath>
  </defs>
  <g id="グループ_8343" data-name="グループ 8343" transform="translate(0 0)" clip-path="url(#clip-path)">
    <path id="パス_19428" data-name="パス 19428" d="M13.519,1.506a.143.143,0,0,0-.118.065,3.974,3.974,0,0,1-.34.51,3.494,3.494,0,0,1-.335.344A7.669,7.669,0,0,0,8.171,1.088C2.147,1.088,0,6.258,0,11.1S2.147,21.115,8.171,21.115a7.713,7.713,0,0,0,4.369-1.22v8.04a.14.14,0,0,0,.139.139H16.8a.14.14,0,0,0,.139-.139V1.641A.14.14,0,0,0,16.8,1.5ZM8.171,17.247c-2.666,0-4.26-2.3-4.26-6.146s1.594-6.15,4.26-6.15,4.26,2.3,4.26,6.15-1.594,6.146-4.26,6.146" transform="translate(0 3.651)" fill="#fff"/>
    <path id="パス_19429" data-name="パス 19429" d="M21.048,2.469a6.875,6.875,0,0,1,4.3-1.346,7.2,7.2,0,0,1,4.839,1.668,5.908,5.908,0,0,1,1.956,4.747V20.644a.138.138,0,0,1-.139.139H27.877a.138.138,0,0,1-.139-.139V8.789a4.145,4.145,0,0,0-.932-2.844,3.26,3.26,0,0,0-2.6-1.063,3.618,3.618,0,0,0-2.735,1.063,3.914,3.914,0,0,0-1.024,2.844V20.644a.14.14,0,0,1-.139.139H16.226a.138.138,0,0,1-.139-.139V1.528a.138.138,0,0,1,.139-.139h4.007a.138.138,0,0,1,.139.139V3.1a4.071,4.071,0,0,1,.675-.627" transform="translate(53.98 3.768)" fill="#fff"/>
    <path id="パス_19430" data-name="パス 19430" d="M18.819,1.271,14.908,13.819a.068.068,0,0,1-.131,0L10.87,1.271a.141.141,0,0,0-.135-.1H6.266a.137.137,0,0,0-.131.179l6.294,19.16a.146.146,0,0,0,.135.1h4.56a.136.136,0,0,0,.131-.1l6.3-19.16a.14.14,0,0,0-.135-.179H18.949a.14.14,0,0,0-.131.1" transform="translate(20.564 3.943)" fill="#fff"/>
    <path id="パス_19431" data-name="パス 19431" d="M37.608,15.261v-.226a.138.138,0,0,1,.139-.139H41.72a.138.138,0,0,1,.139.139v.3A2,2,0,0,0,42.9,16.99a4.627,4.627,0,0,0,2.635.7,4.4,4.4,0,0,0,2.47-.627,1.846,1.846,0,0,0,.95-1.577,1.409,1.409,0,0,0-.78-1.307,12.515,12.515,0,0,0-2.526-.932L44.211,12.8a21.588,21.588,0,0,1-3.262-1.215A6.463,6.463,0,0,1,38.71,9.812a4.372,4.372,0,0,1-.91-2.866,5.022,5.022,0,0,1,2.086-4.229A8.909,8.909,0,0,1,45.391,1.14a10.355,10.355,0,0,1,4.059.74,6.236,6.236,0,0,1,2.7,2.051,4.949,4.949,0,0,1,.95,2.979v.1a.145.145,0,0,1-.144.144H49.1a.141.141,0,0,1-.139-.144v-.1a1.946,1.946,0,0,0-.971-1.651,4.582,4.582,0,0,0-2.635-.666,4.668,4.668,0,0,0-2.413.553,1.7,1.7,0,0,0-.928,1.533A1.5,1.5,0,0,0,42.9,8.07a15.859,15.859,0,0,0,2.979,1.041l.836.226A27.624,27.624,0,0,1,50.1,10.574a6.615,6.615,0,0,1,2.317,1.747,4.332,4.332,0,0,1,.949,2.9,4.94,4.94,0,0,1-2.125,4.234,9.473,9.473,0,0,1-5.658,1.537,11.562,11.562,0,0,1-4.194-.7A6.493,6.493,0,0,1,38.6,18.353a4.266,4.266,0,0,1-.989-2.753Z" transform="translate(126.194 3.825)" fill="#fff"/>
    <path id="パス_19432" data-name="パス 19432" d="M40.2,1.151a10.12,10.12,0,0,0-1.028-.039,5.1,5.1,0,0,0-1.921.379,6.923,6.923,0,0,0-1.821,1.085,11.609,11.609,0,0,0-1.542,1.564V1.578a.138.138,0,0,0-.139-.139H29.622a.138.138,0,0,0-.139.139v19.1a.138.138,0,0,0,.139.139h4.125a.138.138,0,0,0,.139-.139V11.718a8.626,8.626,0,0,1,.436-2.753A6.352,6.352,0,0,1,35.4,6.892,4.263,4.263,0,0,1,37,5.742a5.284,5.284,0,0,1,2.84-.357c.213.026.645.091.88.126a.136.136,0,0,0,.157-.135V1.413a.137.137,0,0,0-.1-.135,4.22,4.22,0,0,0-.579-.126" transform="translate(98.93 3.731)" fill="#fff"/>
    <path id="パス_19433" data-name="パス 19433" d="M23.9,15.128a.138.138,0,0,0-.122.074A4.069,4.069,0,0,1,20,17.4c-2.465,0-4.316-1.877-4.652-4.569a.142.142,0,0,1,.139-.157H28.92a.138.138,0,0,0,.139-.126,12.8,12.8,0,0,0,.074-1.429C29.134,5.363,25.636,1.1,20,1.1s-9.138,4.268-9.138,10.022S14.355,21.143,20,21.143a8.464,8.464,0,0,0,8.441-5.832.142.142,0,0,0-.135-.183ZM20,4.836A4.684,4.684,0,0,1,24.6,9.17a.139.139,0,0,1-.139.161H15.531a.141.141,0,0,1-.139-.161C15.815,6.6,17.6,4.836,20,4.836" transform="translate(36.434 3.674)" fill="#fff"/>
    <path id="パス_19434" data-name="パス 19434" d="M45.69,15.128a.138.138,0,0,0-.122.074,4.069,4.069,0,0,1-3.781,2.2c-2.465,0-4.316-1.877-4.652-4.569a.142.142,0,0,1,.139-.157H50.712a.138.138,0,0,0,.139-.126,12.8,12.8,0,0,0,.074-1.429c0-5.754-3.5-10.022-9.138-10.022S32.65,5.363,32.65,11.117s3.5,10.026,9.138,10.026a8.464,8.464,0,0,0,8.441-5.832.142.142,0,0,0-.135-.183Zm-3.9-10.292a4.684,4.684,0,0,1,4.6,4.334.139.139,0,0,1-.139.161H37.323a.141.141,0,0,1-.139-.161c.422-2.574,2.213-4.334,4.6-4.334" transform="translate(109.557 3.674)" fill="#fff"/>
    <path id="パス_19435" data-name="パス 19435" d="M35.577,19.5a6.875,6.875,0,0,1-4.3,1.346,7.2,7.2,0,0,1-4.839-1.668,5.908,5.908,0,0,1-1.956-4.748V1.323a.138.138,0,0,1,.139-.139h4.125a.138.138,0,0,1,.139.139V13.179a4.145,4.145,0,0,0,.932,2.844,3.261,3.261,0,0,0,2.6,1.063,3.618,3.618,0,0,0,2.735-1.063,3.914,3.914,0,0,0,1.024-2.844V1.323a.14.14,0,0,1,.139-.139H40.4a.138.138,0,0,1,.139.139V20.44a.138.138,0,0,1-.139.139H36.392a.138.138,0,0,1-.139-.139V18.872a4.071,4.071,0,0,1-.675.627" transform="translate(82.156 3.973)" fill="#fff"/>
    <path id="パス_19436" data-name="パス 19436" d="M21.048,2.46a6.875,6.875,0,0,1,4.3-1.346,7.2,7.2,0,0,1,4.839,1.668A5.908,5.908,0,0,1,32.141,7.53V20.635a.138.138,0,0,1-.139.139H27.877a.138.138,0,0,1-.139-.139V8.78a4.145,4.145,0,0,0-.932-2.844,3.26,3.26,0,0,0-2.6-1.063,3.618,3.618,0,0,0-2.735,1.063A3.914,3.914,0,0,0,20.451,8.78V20.635a.14.14,0,0,1-.139.139H16.226a.138.138,0,0,1-.139-.139V1.519a.138.138,0,0,1,.139-.139h4.007a.138.138,0,0,1,.139.139V3.087a4.071,4.071,0,0,1,.675-.627" transform="translate(53.98 3.738)" fill="#fff"/>
    <path id="パス_19437" data-name="パス 19437" d="M23.4,5.157H20.865a.14.14,0,0,0-.139.139V8.589a.137.137,0,0,0,.139.135H23.4a.138.138,0,0,1,.139.139V19.251A5.619,5.619,0,0,0,25.068,23.3a6.42,6.42,0,0,0,4.464,1.328l1.42-.03.88-.039a.139.139,0,0,0,.131-.139V21.054a.137.137,0,0,0-.139-.135H30.369a2.689,2.689,0,0,1-1.995-.7,2.935,2.935,0,0,1-.623-2.086V8.863a.138.138,0,0,1,.139-.139l4.238,0a.143.143,0,0,0,.139-.139V5.3a.14.14,0,0,0-.139-.139H27.891a.138.138,0,0,1-.139-.139V.139A.142.142,0,0,0,27.577,0L23.644.923a.14.14,0,0,0-.109.135l0,3.959a.138.138,0,0,1-.139.139" transform="translate(69.546 0)" fill="#fff"/>
  </g>
</svg>
